<?xml version="1.0" encoding="UTF-8"?>
<svg fill="#f56a5d" height="800" width="800" xmlns="https://www.w3.org/2000/svg" viewBox="-198.4 -198.4 892.8 892.8" xml:space="preserve" stroke="#f56a5d" stroke-width=".005"><path d="M248 567.405c62.446-14.906 101.688-70.514 156.255-104.34 61.004-37.816 148.8-41.485 181.8-105.225 33.773-65.238 20.842-151.014-16.342-214.371-34.5-58.787-118.622-59.407-170.372-103.771C339.902-11.26 326.124-127.221 248-132.336c-76.682-5.02-119.768 90.191-166.46 151.223C46.821 64.27 28.742 116.83 14.96 172.281c-12.774 51.4-11.544 101.742-9.986 154.683C7.261 404.61-29.04 498.676 26.18 553.308c53.99 53.416 147.948 31.73 221.82 14.097" fill="#f56a5d21" stroke="none"/><g stroke-linecap="round" stroke-linejoin="round"/><path d="M354.011 293.021A39.752 39.752 0 0 0 360 272c0-4.028-.62-7.924-1.755-11.606C380.04 234.423 392 201.818 392 168c0-2.433-.084-4.99-.261-7.83C401.595 152.878 408 141.174 408 128c0-22.056-17.944-40-40-40-.143 0-.283.014-.426.016-19.285-28.829-47.751-49.418-81.014-58.628C281.897 12.468 266.382 0 248 0c-18.379 0-33.893 12.464-38.558 29.381-33.269 9.213-61.729 29.81-81.012 58.635-.144-.002-.286-.016-.43-.016-22.056 0-40 17.944-40 40 0 13.174 6.405 24.878 16.261 32.17-.177 2.84-.261 5.397-.261 7.83 0 33.818 11.96 66.423 33.755 92.394A39.336 39.336 0 0 0 136 272a39.752 39.752 0 0 0 5.989 21.021L77.04 496h29.088l51.704-29.544L180 496h26.176L248 335.697 289.824 496H316l22.168-29.544L389.872 496h29.088l-64.949-202.979zM376 168c0 28.042-9.261 55.161-26.258 77.421-5.755-6.41-13.533-10.986-22.302-12.661l-6.832-38.056 30.48-30.48A39.567 39.567 0 0 0 368 168c2.735 0 5.406-.277 7.988-.803.002.268.012.535.012.803zM287.49 46.354c25.381 8.19 47.327 23.997 63.249 45.536a39.705 39.705 0 0 0-19.267 19.886l-38.104-6.928-17.912-35.816a39.818 39.818 0 0 0 12.034-22.678zm-78.98-.002a39.814 39.814 0 0 0 12.034 22.68l-17.912 35.816-38.104 6.928a39.705 39.705 0 0 0-19.268-19.887c15.917-21.535 37.865-37.338 63.25-45.537zM128 104c11.24 0 20.84 7.672 23.344 18.664l1.704 7.464 60.32-10.968 27.584-55.168-5.984-3.888C228.096 55.632 224 48.12 224 40c0-13.232 10.768-24 24-24s24 10.768 24 24c0 8.12-4.096 15.632-10.968 20.104l-5.984 3.888 27.584 55.168 60.32 10.968 1.704-7.464C347.16 111.672 356.76 104 368 104c13.232 0 24 10.768 24 24s-10.768 24-24 24c-4.888 0-9.616-1.496-13.664-4.32l-5.496-3.832-45.448 45.448 10.528 58.632 6.552.136C333.448 248.32 344 259.056 344 272c0 13.232-10.768 24-24 24s-24-10.768-24-24c0-2.64.504-5.32 1.56-8.184l2.44-6.704-52-26.056-52 26.056 2.448 6.704C199.496 266.68 200 269.36 200 272c0 13.232-10.768 24-24 24s-24-10.768-24-24c0-12.944 10.552-23.68 23.528-23.936l6.552-.136 10.528-58.632-45.448-45.448-5.496 3.832c-4.048 2.824-8.776 4.32-13.664 4.32-13.232 0-24-10.768-24-24s10.768-24 24-24zm83.414 186.566A39.741 39.741 0 0 0 216 272c0-2.208-.208-4.456-.616-6.704L248 248.944l32.616 16.352A37.595 37.595 0 0 0 280 272a39.741 39.741 0 0 0 4.586 18.566c-23.933 7.194-49.239 7.194-73.172 0zM120 168c0-.268.01-.535.012-.803 2.582.525 5.253.803 7.988.803a39.506 39.506 0 0 0 16.904-3.776l30.48 30.48-6.832 38.056c-8.766 1.675-16.541 6.251-22.295 12.66C129.261 223.16 120 196.042 120 168zm73.824 312H188l-19.175-25.577 38.869-132.143-15.35-4.515-39.083 132.87L101.872 480H98.96l55.738-174.169A39.749 39.749 0 0 0 176 312c9.126 0 17.543-3.079 24.281-8.243 12.2 4.308 24.744 6.949 37.46 7.87L193.824 480zm148.968-29.336-39.098-132.922-15.35 4.515 38.863 132.124L308 480h-5.824l-43.917-168.374c12.716-.921 25.259-3.561 37.46-7.87C302.457 308.921 310.874 312 320 312a39.749 39.749 0 0 0 21.302-6.169L397.04 480h-2.912l-51.336-29.336z"/><path d="M248 200c17.648 0 32-14.352 32-32s-14.352-32-32-32-32 14.352-32 32 14.352 32 32 32zm0-48c8.824 0 16 7.176 16 16s-7.176 16-16 16-16-7.176-16-16 7.176-16 16-16z"/></svg>