<?xml version="1.0" encoding="UTF-8"?>
<svg viewBox="-21 -21 102 102" xmlns="https://www.w3.org/2000/svg" fill="#5c9eff" stroke="#5c9eff"><path d="M30 77.17c8.778-.3 16.934-4.72 23.622-10.414 6.165-5.249 8.967-12.973 12.44-20.287 3.528-7.43 8.643-14.605 8.02-22.807-.637-8.399-4.765-16.8-11.417-21.966-6.3-4.894-15.443-2.078-22.962-4.74C31.53-5.937 25.52-15.712 16.936-14.492 8.448-13.286 4.293-3.618-1.396 2.795c-5.762 6.496-14.121 11.89-15.191 20.507-1.067 8.597 5.938 15.74 9.723 23.533 3.682 7.581 5.676 16.213 12.184 21.569 6.88 5.662 15.774 9.07 24.68 8.766" fill="#5c9eff21" stroke="none"/><g stroke-linecap="round" stroke-linejoin="round"/><path d="M28 4C12.561 4 0 16.561 0 32c0 1.012.059 2.058.176 3.11.061.549.559.94 1.104.884a1 1 0 0 0 .884-1.104A26.255 26.255 0 0 1 2 32C2 17.664 13.664 6 28 6c14.337 0 26 11.664 26 26S42.337 58 28 58a25.94 25.94 0 0 1-13.618-3.851 1 1 0 1 0-1.049 1.702A27.932 27.932 0 0 0 28 60c15.439 0 28-12.561 28-28S43.439 4 28 4Zm-4 47a1 1 0 0 0-1-1H5a1 1 0 0 0 0 2h18a1 1 0 0 0 1-1Zm-6-6a1 1 0 0 0-1-1H1a1 1 0 0 0 0 2h16a1 1 0 0 0 1-1ZM2 39a1 1 0 0 0 1 1h8a1 1 0 0 0 0-2H3a1 1 0 0 0-1 1Zm26-9c-1.103 0-2 .897-2 2s.897 2 2 2 2-.897 2-2-.897-2-2-2ZM12.428 15.038 25.98 28.567A3.96 3.96 0 0 1 28 28c2.206 0 4 1.794 4 4s-1.794 4-4 4-4-1.794-4-4c0-.739.215-1.424.566-2.019L11.015 16.453a1 1 0 0 1 1.413-1.415Zm20.294 38.474.259.965a1.002 1.002 0 0 0 1.226.706 1 1 0 0 0 .706-1.226l-.26-.965a1 1 0 1 0-1.931.52Zm5.407-1.956.501.865a.998.998 0 0 0 1.366.364.997.997 0 0 0 .364-1.366l-.501-.865a1 1 0 0 0-1.73 1.002Zm4.715-3.29.708.707a.997.997 0 0 0 1.415-.001 1.002 1.002 0 0 0-.001-1.414l-.708-.707a1 1 0 1 0-1.414 1.415Zm4.704-6.129a1 1 0 1 0-1 1.732l.866.5a.998.998 0 0 0 1.366-.366.998.998 0 0 0-.366-1.366l-.866-.5Zm2.406-3.215a1 1 0 0 0 .518-1.932l-.967-.259a1 1 0 0 0-.518 1.932l.967.259Zm-2.952-5.919H51a1 1 0 1 0 0-2h-3.998a1 1 0 1 0 0 2Zm1.28-6.436a1 1 0 0 0 1.225.707l.967-.258a1.001 1.001 0 0 0-.518-1.932l-.967.259a1 1 0 0 0-.707 1.224Zm-.863-6.931-.867.5a.998.998 0 0 0-.367 1.365.996.996 0 0 0 1.365.367l.867-.5a.999.999 0 1 0-.998-1.732Zm-3.864-2.191c.256 0 .51-.097.706-.292l.709-.707a1 1 0 0 0-1.412-1.416l-.709.707a.999.999 0 0 0 .706 1.708Zm-21.251-5.694a1 1 0 0 0 .967-1.257l-.257-.966a1 1 0 0 0-1.932.514l.256.966c.12.448.524.743.966.743Zm-5.303 2.197a1 1 0 0 0 .865-1.5l-.5-.866a1 1 0 1 0-1.732 1l.5.866c.185.321.521.5.867.5Zm21.497-.135a.997.997 0 0 0 1.366-.364l.501-.865a.998.998 0 0 0-.364-1.366.998.998 0 0 0-1.366.364l-.501.865a.998.998 0 0 0 .364 1.366Zm-5.064-2.097a1 1 0 0 0 1.225-.706l.26-.966a1.002 1.002 0 0 0-.706-1.226 1.004 1.004 0 0 0-1.226.706l-.259.966a1 1 0 0 0 .706 1.226ZM27 51v4a1 1 0 0 0 2 0v-4a1 1 0 0 0-2 0Zm2-38V9a1 1 0 0 0-2 0v4a1 1 0 0 0 2 0ZM2.414 11l.586.586L7.586 7 7 6.414 2.414 11Zm-2.121.707a.999.999 0 0 1 0-1.414l6-6a.999.999 0 0 1 1.414 0l2 2a.999.999 0 0 1 0 1.414l-6 6a.997.997 0 0 1-1.414 0l-2-2ZM25 2h6a1 1 0 1 0 0-2h-6a1 1 0 0 0 0 2Zm25.259 9.155 4.448-4.448a.999.999 0 1 0-1.414-1.414l-4.448 4.448a.999.999 0 1 0 1.414 1.414ZM60 6c0 3.309-2.691 6-6 6a1 1 0 1 1 0-2c2.206 0 4-1.794 4-4s-1.794-4-4-4-4 1.794-4 4a1 1 0 1 1-2 0c0-3.309 2.691-6 6-6s6 2.691 6 6Z" fill-rule="evenodd" stroke="none"/></svg>