<?xml version="1.0" encoding="UTF-8"?><svg fill="#f8b775" width="64" height="64" viewBox="-64 -64 384 384" xmlns="https://www.w3.org/2000/svg"><path d="M128 273.971c21.386.014 35.91-22.69 56.367-28.925 24.837-7.57 54.016 2.279 76.064-11.435 22.851-14.214 38.757-38.996 46.467-64.779 7.838-26.216 7.12-55.536-2.875-81.008-9.673-24.649-33.183-40.094-51.968-58.755-17.071-16.957-31.786-37.295-54.01-46.518-21.894-9.086-46.553-8.13-70.045-4.966C106.067-19.461 88.066-4.65 66.49.272 38.241 6.715-.195-11.284-18.663 11.04c-18.306 22.129 12.969 56.992 6.04 84.863-7.127 28.664-49.501 45.331-45.692 74.621 3.66 28.152 38.052 41.955 62.687 56.065 20.434 11.704 45.306 9.957 67.295 18.384 19.97 7.654 34.945 28.984 56.332 28.997" fill="#f8b77521"/><g stroke-linecap="round" stroke-linejoin="round"/><path d="M66.56 91.073 22.249 128l44.313 36.927a4 4 0 0 1-5.122 6.146l-48-40a4 4 0 0 1 0-6.146l48-40a4 4 0 0 1 5.122 6.146Zm176 33.854-48-40a4 4 0 0 0-5.12 6.146L233.751 128l-44.313 36.927a4 4 0 0 0 5.122 6.146l48-40a4 4 0 0 0 0-6.146ZM161.368 36.24a3.998 3.998 0 0 0-5.126 2.392l-64 176a4 4 0 1 0 7.518 2.734l64-176a4 4 0 0 0-2.392-5.126Z"/></svg>