<?xml version="1.0" encoding="UTF-8"?>
<svg preserveAspectRatio="xMidYMid" version="1.1" viewBox="0 0 256 225" xmlns="http://www.w3.org/2000/svg">
<title>Android</title>
<path d="m19.288 192.99c-6.6148 0-11.066 5.1929-11.066 11.87 0 6.6766 4.4511 11.87 11.066 11.87 6.6148 0 11.066-5.1929 11.066-11.87 0-6.6766-4.4511-11.87-11.066-11.87m-1.4837-7.3567c5.3166 0 9.7677 2.7201 11.87 5.6875v-4.9457h8.1603v37.031h-6.2439c-1.051 0-1.8546-0.86549-1.8546-1.8546v-3.091c-2.1019 2.9674-6.4912 5.6875-11.87 5.6875-10.139 0-17.866-8.6549-17.866-19.226 0-10.571 7.6658-19.288 17.804-19.288m29.303 0.74185h8.1603v5.0075c2.2255-3.7092 6.4294-5.7493 11.251-5.7493 8.5931 0 14.157 6.0584 14.157 15.455v22.317h-6.2439c-1.051 0-1.8546-0.86549-1.8546-1.8546v-19.103c0-5.873-2.9674-9.3968-7.7276-9.3968-5.3784 0-9.5822 4.2038-9.5822 12.117v18.237h-6.2439c-1.051 0-1.8546-0.86549-1.8546-1.8546v-35.176h-0.061821zm59.286 6.6148c-6.6148 0-11.066 5.1929-11.066 11.87 0 6.6766 4.4511 11.87 11.066 11.87 6.6148 0 11.066-5.1929 11.066-11.87 0-6.6766-4.4511-11.87-11.066-11.87m-1.4837-7.3567c5.3166 0 9.7677 2.7201 11.87 5.6875v-23.492h8.1603v55.577h-6.2439c-1.051 0-1.8546-0.86549-1.8546-1.8546v-3.091c-2.1019 2.9674-6.4912 5.6875-11.87 5.6875-10.139 0-17.866-8.6549-17.866-19.226 0-10.571 7.6658-19.288 17.804-19.288m29.303 0.74185h8.1603v6.6148c1.4219-4.2038 5.5639-6.9858 9.7677-6.9858 1.051 0 2.1019 0.06182 3.1529 0.3091v8.3458c-1.4219-0.43275-2.5965-0.68003-4.0802-0.68003-4.6366 0-8.9022 3.9565-8.9022 11.313v18.052h-6.2439c-1.051 0-1.8546-0.86549-1.8546-1.8546v-35.114zm43.027 30.169c6.4912 0 11.128-5.1311 11.128-11.684 0-6.6148-4.5747-11.684-11.128-11.684-6.6148 0-11.19 5.1311-11.19 11.684 0.061821 6.6148 4.6366 11.684 11.19 11.684m0 7.604c-10.942 0-19.412-8.5313-19.412-19.226 0-10.757 8.4695-19.288 19.412-19.288 10.942 0 19.412 8.5313 19.412 19.288 0 10.695-8.4076 19.226-19.412 19.226m26.027-37.773h8.1603v37.031h-6.2439c-1.051 0-1.8546-0.86549-1.8546-1.8546v-35.176h-0.061821zm4.0802-8.0985c-2.9674 0-5.5021-2.4728-5.5021-5.5021 0-2.9674 2.5347-5.3784 5.5021-5.3784 3.0292 0 5.3784 2.4728 5.3784 5.3784 0 3.0292-2.3492 5.5021-5.3784 5.5021m30.107 14.713c-6.6148 0-11.066 5.1929-11.066 11.87 0 6.6766 4.4511 11.87 11.066 11.87s11.066-5.1929 11.066-11.87c-0.061821-6.6766-4.4511-11.87-11.066-11.87m-1.4837-7.3567c5.3166 0 9.7677 2.7201 11.87 5.6875v-23.492h8.1603v55.577h-6.2439c-1.051 0-1.8546-0.86549-1.8546-1.8546v-3.091c-2.1019 2.9674-6.4912 5.6875-11.87 5.6875-10.139 0-17.866-8.6549-17.866-19.226 0-10.571 7.6658-19.288 17.804-19.288" fill="#FFF"/>
<path d="m190.72 43.565 21.328-36.907c1.2364-2.1019 0.49457-4.822-1.6073-6.0584-2.1019-1.2364-4.822-0.49457-6.0584 1.6073l-21.575 37.34c-16.506-7.5421-35.052-11.746-54.773-11.746-19.783 0-38.267 4.2038-54.773 11.746l-21.575-37.34c-1.2364-2.1019-3.9565-2.8438-6.0584-1.6073-2.1019 1.2364-2.8438 3.9565-1.6073 6.0584l21.328 36.907c-36.722 19.906-61.697 56.937-65.345 100.64h255.94c-3.6474-43.707-28.685-80.738-65.221-100.64zm-121.66 64.17c-5.873 0-10.633-4.7602-10.633-10.633 0-5.873 4.7602-10.633 10.633-10.633 5.873 0 10.633 4.7602 10.633 10.633 0 5.873-4.7602 10.633-10.633 10.633zm117.83 0c-5.873 0-10.633-4.7602-10.633-10.633 0-5.873 4.7602-10.633 10.633-10.633 5.873 0 10.633 4.7602 10.633 10.633 0 5.873-4.7602 10.633-10.633 10.633z" fill="#3DDC84"/>
</svg>

