<svg enable-background="new 0 0 224 54" viewBox="0 0 224 54" xmlns="http://www.w3.org/2000/svg"><g fill="#27578d"><path d="m3.7 1.4-1.4 1.4c.1.1 1.6 1.5 4.6 4l1.3-1.5c-2.9-2.4-4.5-3.9-4.5-3.9z"/><path d="m26.8 19.2-1.1 1.7c-3.3-2.2-6.5-4.5-9.6-6.8l1.2-1.6c3.1 2.3 6.3 4.6 9.5 6.7zm174 5.8c-3.1 2.5-6.3 4.8-9.5 7l-1.1-1.7c3.1-2.1 6.3-4.5 9.4-6.9zm-153.9 6.2-1 1.8c-3.4-1.8-6.9-3.8-10.3-5.8l1-1.7c3.5 2 6.9 3.9 10.3 5.7zm21.1 9.8-.7 1.9c-3.6-1.4-7.2-2.9-10.8-4.6l.8-1.8c3.6 1.5 7.2 3.1 10.7 4.5zm113.3-2.8c-3.5 1.9-7 3.7-10.6 5.3l-.8-1.8c3.5-1.5 7-3.3 10.4-5.2zm-91 9.7-.5 1.9c-3.8-.9-7.6-1.9-11.4-3.1l.6-1.9c3.8 1.2 7.6 2.2 11.3 3.1zm69.4-.1c-3.7 1.2-7.6 2.3-11.4 3.1l-.4-2c3.8-.8 7.5-1.9 11.2-3.1zm-46.5 3.7-.1 2c-3.9-.3-7.8-.7-11.7-1.3l.3-2c3.8.6 7.7 1 11.5 1.3zm23.5 1.4c-3.9.5-7.8.7-11.8.8v-2c3.9-.1 7.8-.4 11.6-.8z"/><path d="m212.7 11.7c-1.4 1.4-2.9 2.8-4.3 4.1l1.4 1.5c1.5-1.3 2.9-2.8 4.4-4.2z"/><path d="m223 2.1-19.6 8.9 9.2 2.1 2.6 9z"/></g></svg>