<svg enable-background="new 0 0 224 54" viewBox="0 0 224 54" xmlns="http://www.w3.org/2000/svg"><g fill="#27578d"><path d="m3.7 53.7-1.4-1.5c.1-.1 1.6-1.5 4.6-4l1.3 1.5c-2.9 2.5-4.5 4-4.5 4z"/><path d="m17.3 42.6-1.2-1.6c3.1-2.3 6.3-4.6 9.6-6.8l1.1 1.7c-3.2 2.1-6.4 4.4-9.5 6.7zm182.2-11c-3.1-2.5-6.2-4.8-9.4-6.9l1.1-1.7c3.2 2.2 6.4 4.5 9.5 7zm-162.8-2-1-1.7c3.4-2 6.8-4 10.3-5.8l.9 1.8c-3.4 1.8-6.8 3.7-10.2 5.7zm20.6-10.9-.8-1.8c3.6-1.7 7.2-3.2 10.8-4.6l.7 1.9c-3.5 1.3-7.1 2.9-10.7 4.5zm123-.1c-3.4-1.9-6.9-3.6-10.4-5.2l.8-1.8c3.6 1.6 7.1 3.3 10.6 5.3zm-101.3-8.3-.6-1.9c3.8-1.2 7.6-2.2 11.4-3.1l.5 1.9c-3.7.9-7.5 1.9-11.3 3.1zm80.1-1.1c-3.7-1.2-7.4-2.3-11.2-3.1l.4-2c3.8.9 7.7 1.9 11.4 3.1zm-57.4-4.3-.3-2c3.9-.6 7.9-1.1 11.7-1.3l.1 2c-3.8.3-7.7.7-11.5 1.3zm34.7-.7c-3.8-.5-7.7-.7-11.6-.8v-2c3.9.1 7.9.4 11.8.8z"/><path d="m212.7 43.4c-1.4-1.4-2.9-2.8-4.3-4.1l1.4-1.5c1.5 1.3 2.9 2.8 4.4 4.2z"/><path d="m223 53-19.6-8.9 9.2-2.1 2.6-9z"/></g></svg>