<?xml version="1.0" encoding="UTF-8"?>
<svg preserveAspectRatio="xMidYMid" version="1.1" viewBox="0 0 256 316" xmlns="https://www.w3.org/2000/svg">
<title>CodeIgniter</title>
<path d="m81.834 315.11c-20.223-8.9344-33.964-28.182-35.767-50.228 1.1821-22.676 13.16-43.401 32.181-55.763-3.1226 7.6144-2.3641 16.283 1.9701 23.247 4.9351 6.8953 13.426 10.205 21.74 8.4812 11.84-3.3295 18.775-15.623 15.446-27.473-1.1821-4.147-3.5462-7.9099-6.7771-10.747-13.397-10.895-20.124-28.015-17.731-45.125 2.2952-9.0624 7.309-17.258 14.392-23.444-5.3193 14.185 9.683 28.182 19.75 35.068 17.869 10.717 35.068 22.498 51.538 35.275 17.997 14.185 27.808 36.388 26.271 59.103-4.0485 24.173-21.149 44.13-44.455 51.616 46.622-10.373 94.693-47.41 95.609-99.943-0.91609-42.032-26.005-79.749-64.353-96.929h-1.7041c0.84714 2.0587 1.2609 4.2751 1.1821 6.5112 0.12806-1.448 0.12806-2.8862 0-4.3342 0.20686 1.7041 0.20686 3.4181 0 5.1222-2.9157 11.949-14.973 19.307-26.951 16.391-4.7873-1.1821-9.0624-3.8712-12.136-7.7523-15.367-19.701 0-42.121 2.571-63.792 1.5761-27.709-11.082-54.197-33.541-70.391 11.239 18.736-3.7333 43.342-14.618 57.34-10.904 13.998-26.665 24.429-39.51 36.644-13.84 12.875-26.527 27.03-37.914 42.16-24.616 30.073-34.28 69.741-26.271 107.76 10.983 36.644 41.441 64.176 79.001 71.317h0.20686l-0.12806-0.11821z" fill="#DD4814"/>
</svg>
