<svg width="60" height="60" viewBox="0 0 60 60" fill="none" xmlns="https://www.w3.org/2000/svg">
<path d="M40.0746 6H18.9996C17.3496 6 16.0371 7.35 16.0371 9V26.8125C16.4871 26.55 16.9746 26.4 17.5371 26.3625V13.5H41.5371V26.3625C42.0996 26.4 42.5871 26.55 43.0371 26.8125V9C43.0371 7.35 41.6871 6 40.0746 6ZM26.5371 10.5C26.1246 10.5 25.7871 10.1625 25.7871 9.75C25.7871 9.3375 26.1246 9 26.5371 9C26.9496 9 27.2871 9.3375 27.2871 9.75C27.2871 10.1625 26.9496 10.5 26.5371 10.5ZM29.5371 10.5C29.1246 10.5 28.7871 10.1625 28.7871 9.75C28.7871 9.3375 29.1246 9 29.5371 9C29.9496 9 30.2871 9.3375 30.2871 9.75C30.2871 10.1625 29.9496 10.5 29.5371 10.5ZM32.5371 10.5C32.1246 10.5 31.7871 10.1625 31.7871 9.75C31.7871 9.3375 32.1246 9 32.5371 9C32.9496 9 33.2871 9.3375 33.2871 9.75C33.2871 10.1625 32.9496 10.5 32.5371 10.5Z" fill="#009E42"/>
<path d="M41.5371 33.6375V46.5H17.5371V33.6375C16.9746 33.6 16.4871 33.45 16.0371 33.1875V51C16.0371 52.65 17.3496 54 18.9996 54H40.0371C41.6871 54 42.9996 52.65 42.9996 51V33.1875C42.5871 33.45 42.0996 33.6 41.5371 33.6375ZM32.5371 51H26.5371C26.1246 51 25.7871 50.6625 25.7871 50.25C25.7871 49.8375 26.1246 49.5 26.5371 49.5H32.5371C32.9496 49.5 33.2871 49.8375 33.2871 50.25C33.2871 50.6625 32.9496 51 32.5371 51Z" fill="#009E42"/>
<path d="M29.5371 25.5C27.0621 25.5 25.0371 27.525 25.0371 30C25.0371 32.475 27.0621 34.5 29.5371 34.5C32.0121 34.5 34.0371 32.475 34.0371 30C34.0371 27.525 32.0121 25.5 29.5371 25.5Z" fill="#009E42"/>
<path d="M41.6875 27.7499H39.775C39.5125 26.5124 39.025 25.3499 38.35 24.3374L39.7 22.9874C40.225 22.4624 40.15 21.5624 39.5875 20.9999L38.5375 19.9124C38.2375 19.6124 37.825 19.4249 37.4125 19.4249C37.075 19.4249 36.775 19.5374 36.5125 19.7999L35.1625 21.1499C34.15 20.4749 32.9875 19.9874 31.75 19.7249V17.8124C31.75 17.0624 31.075 16.4624 30.25 16.4624H28.75C27.925 16.4624 27.25 17.0624 27.25 17.8124V19.7249C26.0125 19.9874 24.85 20.4749 23.8375 21.1499L22.4875 19.7999C22.2625 19.5749 21.925 19.4249 21.5875 19.4249C21.2125 19.4249 20.8 19.5749 20.4625 19.9124L19.45 20.9999C18.85 21.5999 18.8125 22.4999 19.3375 22.9874L20.6875 24.3374C20.0125 25.3499 19.525 26.5124 19.2625 27.7499H17.35C16.6 27.7499 16 28.4249 16 29.2499V30.7499C16 31.5749 16.6 32.2499 17.35 32.2499H19.2625C19.525 33.4874 20.0125 34.6499 20.6875 35.6624L19.3375 37.0124C18.8125 37.5374 18.8875 38.4374 19.45 38.9999L20.5 40.0499C20.8 40.3499 21.2125 40.5374 21.625 40.5374C21.9625 40.5374 22.2625 40.4249 22.525 40.1624L23.875 38.8124C24.8875 39.4874 26.05 39.9749 27.2875 40.2374V42.1499C27.2875 42.8999 27.9625 43.4999 28.7875 43.4999H30.2875C31.1125 43.4999 31.7875 42.8999 31.7875 42.1499V40.2374C33.025 39.9749 34.1875 39.4874 35.2 38.8124L36.55 40.1624C36.775 40.3874 37.1125 40.5374 37.45 40.5374C37.825 40.5374 38.2375 40.3874 38.575 40.0499L39.625 38.9999C40.225 38.3999 40.2625 37.4999 39.7375 37.0124L38.3875 35.6624C39.0625 34.6499 39.55 33.4874 39.8125 32.2499H41.725C42.475 32.2499 43.075 31.5749 43.075 30.7499V29.2499C43.0375 28.4249 42.4375 27.7499 41.6875 27.7499ZM29.5375 35.9999C26.2375 35.9999 23.5375 33.2999 23.5375 29.9999C23.5375 26.6999 26.2375 23.9999 29.5375 23.9999C32.8375 23.9999 35.5375 26.6999 35.5375 29.9999C35.5375 33.2999 32.8375 35.9999 29.5375 35.9999Z" fill="#009E42"/>
</svg>
