<svg width="60" height="60" viewBox="0 0 60 60" fill="none" xmlns="http://www.w3.org/2000/svg">
<path fill-rule="evenodd" clip-rule="evenodd" d="M15.7739 35.2687C15.7739 35.8996 20.2706 44.1182 20.4781 45.0159H39.7438C39.8539 44.5374 41.7296 40.9299 42.098 40.1974C42.4325 39.5241 44.4522 35.6964 44.4522 35.2687C44.4522 34.8199 43.1438 32.4276 42.8856 31.9068L32.9521 12.0441C32.6599 11.4555 32.4101 10.9474 32.1349 10.397C31.6649 9.45277 30.7842 9.67718 30.7842 10.2911V31.6866C30.7842 32.1862 31.3346 32.127 31.9909 32.8298C33.5364 34.4896 32.3424 37.1445 30.1109 37.1445C27.4688 37.1445 26.5542 33.6809 28.8449 32.3217C29.1032 32.1693 29.4419 32.038 29.4419 31.6866V10.2911C29.4419 9.72799 28.5909 9.44006 28.1293 10.325C27.8287 10.9009 27.5874 11.4217 27.3121 11.9721C26.7617 13.073 26.2366 14.1231 25.6693 15.2579C24.9791 16.6382 15.7739 34.731 15.7739 35.273V35.2687ZM27.4222 3.0083V3.90595H11.7387C11.6625 2.97866 10.5235 2.00056 9.49881 2.00056H8.9399C6.27234 2.00056 5.46784 6.63278 8.88909 7.21287C10.1975 7.43305 11.6456 6.37873 11.7387 5.2482H22.3793C22.1549 5.44297 22.0194 5.45567 21.7103 5.58693C20.1648 6.2517 18.3483 7.20017 17.0865 8.24602C16.7054 8.56358 16.3286 8.81764 15.9644 9.14367C14.8509 10.1302 13.8304 11.1846 12.9328 12.3871C10.7733 15.2748 8.59692 19.7504 8.59692 24.7425C6.22577 24.7425 6.58144 24.3445 6.58144 29.2223C6.58144 29.5991 6.78045 30.0056 7.14036 30.0056C8.3344 30.0056 10.6929 30.1369 11.7345 29.8955C11.9758 28.8539 11.8446 26.4997 11.8446 25.3014C11.8446 24.5816 10.5616 24.7425 9.93917 24.7425C9.93917 21.0333 11.4 17.1252 13.2546 14.2798C13.5721 13.7928 13.8727 13.4033 14.1945 12.9799L15.287 11.7223C16.8071 10.2192 17.1458 9.82114 18.9877 8.59322L20.4612 7.71251C21.6044 7.05197 23.9798 6.11198 25.4025 5.81982C25.9572 5.70549 26.8421 5.48955 27.4095 5.47684C27.4095 7.6871 27.4137 7.26791 31.8893 7.26791C32.9098 7.26791 32.787 6.26017 32.787 5.47684C34.6119 5.51919 38.2322 6.84026 39.7353 7.71251C42.3012 9.19448 42.6061 9.4443 44.9095 11.7223C45.5319 12.3405 46.4804 13.5684 46.9419 14.2798C48.8473 17.2056 50.2573 21.2027 50.2573 24.7425C47.8607 24.7425 48.3519 24.3233 48.3519 29.3366C48.3519 29.6372 48.407 29.6457 48.462 29.8955C49.5036 30.1369 51.8578 30.0056 53.0561 30.0056C53.4203 30.0056 53.615 29.5991 53.615 29.2223V25.6359C53.615 24.5011 52.5268 24.7383 51.5996 24.7383C51.5996 17.5782 47.45 11.0999 41.9879 7.46692C41.2808 6.99693 40.0486 6.26441 39.2738 5.92144C39.0451 5.81982 38.8249 5.73513 38.5624 5.62081L38.0162 5.38369C37.8722 5.30324 37.9019 5.32018 37.8172 5.2482H48.4578C48.5509 6.3745 49.999 7.43305 51.3074 7.21287C54.7286 6.63278 53.9284 2.00056 51.2566 2.00056H50.6977C49.673 2.00056 48.534 2.97866 48.4578 3.90595H32.7743C32.7743 1.56444 32.8886 1.89047 28.7433 1.89047C27.816 1.89047 27.401 2.06831 27.401 3.01253L27.4222 3.0083ZM18.3483 47.0314V50.9523C18.3483 51.2148 18.6489 51.5112 18.9072 51.5112H41.3104C41.5729 51.5112 41.8693 51.2105 41.8693 50.9523V47.0314C41.8693 46.5063 41.6068 46.248 41.086 46.248H19.1316C18.6066 46.248 18.3483 46.5106 18.3483 47.0314ZM20.2537 53.0821V57.0029C20.2537 57.9472 20.6687 58.125 21.5959 58.125H38.6217C39.549 58.125 39.9639 57.9472 39.9639 57.0029V53.0821C39.9639 52.8238 39.8877 52.7476 39.6294 52.7476H20.5882C20.3299 52.7476 20.2537 52.8238 20.2537 53.0821Z" fill="#6E5AA5"/>
</svg>
