<svg width="58" height="41" viewBox="0 0 58 41" fill="none" xmlns="http://www.w3.org/2000/svg">
<g clip-path="url(#clip0_949_828)">
<path fill-rule="evenodd" clip-rule="evenodd" d="M50.5313 10.8124C49.2648 10.1194 48.6357 9.11203 48.6357 9.11203C48.6357 9.11203 48.7338 6.55604 48.6116 5.28546C48.4486 3.58811 46.8335 2.21684 45.1101 2.2148C35.524 2.20253 25.9379 2.20764 16.3518 2.20816C16.2286 2.20816 16.106 2.22195 15.9128 2.23422C15.9128 2.53577 15.9128 2.80307 15.9128 3.07037C15.9128 12.0232 15.9148 20.9756 15.9118 29.9284C15.9102 32.7717 14.3948 34.9484 11.8675 35.6875C11.3104 35.8505 10.7068 35.9098 10.1231 35.9164C7.94888 35.9425 5.77368 35.9272 3.59897 35.9272C3.39402 35.9272 3.18907 35.9272 2.97492 35.9272C3.23916 37.415 4.68553 38.6416 6.21013 38.7172C6.31593 38.7229 6.42175 38.7229 6.52704 38.7229C19.3228 38.7229 32.1181 38.7239 44.9139 38.7218C46.419 38.7218 47.5005 38.014 48.2012 36.8052C46.7579 36.8349 45.311 36.8885 43.8641 36.8906C36.5794 36.8998 29.2948 36.8952 22.0101 36.8941C19.2528 36.8941 17.7394 35.3818 17.7389 32.6286C17.7384 26.062 17.7379 19.4949 17.7389 12.9284C17.7389 10.2594 19.2732 8.72462 21.9427 8.7236C26.2712 8.72258 30.5996 8.7236 34.9286 8.7236C35.1366 8.7236 35.3446 8.7236 35.5532 8.7236C35.5664 8.7558 35.5802 8.78748 35.593 8.81917C35.4683 8.89124 35.3461 8.96943 35.2174 9.03485C34.5417 9.37729 33.8205 9.65277 33.1995 10.076C32.5515 10.5181 31.8952 10.6555 31.1286 10.6484C28.0462 10.6177 24.9633 10.6336 21.8803 10.6366C20.345 10.6382 19.6335 11.3491 19.633 12.8819C19.632 19.5123 19.6315 26.1422 19.6336 32.7722C19.6336 34.2589 20.3583 34.9811 21.8533 34.9816C30.0671 34.9837 38.2809 34.9842 46.4942 34.9816C47.9758 34.9811 48.6704 34.2896 48.6714 32.8197C48.675 27.7731 48.673 22.7266 48.673 17.6805C48.673 17.4592 48.673 17.2379 48.673 17.0166C49.6471 18.1129 50.6161 19.1229 50.5993 20.7221C50.5487 25.3879 50.5906 30.0547 50.5778 34.721C50.5696 37.5233 49.02 39.6904 46.5187 40.3911C45.9785 40.5423 45.3974 40.6062 44.8352 40.6062C32.1033 40.618 19.3709 40.6195 6.63897 40.6129C3.31327 40.6108 0.881455 38.1765 0.87941 34.8615C0.873788 25.2545 0.873277 15.6469 0.87941 6.03983C0.881966 2.76269 3.31785 0.320678 6.60368 0.318633C19.357 0.310456 32.1104 0.310456 44.8638 0.318633C48.0377 0.320678 50.4127 2.57001 50.5528 5.73216C50.6243 7.35489 50.5748 8.98273 50.5763 10.6085C50.5763 10.6837 50.5436 10.7583 50.5313 10.8124ZM8.34142 12.4883C8.9532 12.4883 9.56498 12.4975 10.1757 12.4863C11.2756 12.4664 12.0842 11.7457 12.1245 10.656C12.1716 9.39211 12.167 8.1251 12.1271 6.86066C12.0939 5.79247 11.3068 5.02685 10.2657 5.00845C9.00074 4.98647 7.73475 4.9834 6.4703 5.00998C5.45015 5.03195 4.67943 5.817 4.66359 6.83255C4.64417 8.09751 4.64569 9.36349 4.66256 10.6285C4.67636 11.6798 5.44658 12.4479 6.50608 12.4827C7.11786 12.5037 7.72964 12.4873 8.34142 12.4883ZM4.65847 18.1344C4.65847 18.7247 4.65284 19.3155 4.66 19.9053C4.6738 21.0701 5.43534 21.847 6.59757 21.8613C7.77871 21.8751 8.95931 21.8731 10.1405 21.8623C11.3052 21.8516 12.1046 21.0972 12.1322 19.9416C12.1619 18.7191 12.1649 17.4945 12.1307 16.2725C12.099 15.1465 11.2981 14.3927 10.1757 14.3819C8.97364 14.3707 7.77155 14.3686 6.56996 14.3824C5.44555 14.3957 4.67736 15.1746 4.6605 16.2996C4.65079 16.9108 4.65847 17.5226 4.65847 18.1344ZM4.65847 27.4772C4.65847 28.089 4.65131 28.7008 4.66 29.3121C4.67687 30.439 5.44197 31.2205 6.56485 31.2348C7.76694 31.2501 8.96953 31.2471 10.1711 31.2358C11.294 31.2251 12.0985 30.4727 12.1302 29.3489C12.1649 28.1059 12.1665 26.8598 12.1281 25.6168C12.0949 24.5492 11.314 23.781 10.2713 23.7605C9.00636 23.736 7.74036 23.7329 6.47591 23.7616C5.42612 23.7856 4.68096 24.5814 4.66103 25.6429C4.64927 26.2542 4.65847 26.8659 4.65847 27.4772Z" fill="#1580C1"/>
<path fill-rule="evenodd" clip-rule="evenodd" d="M44.0402 26.8511C44.0402 28.3138 44.0412 29.682 44.0402 31.0503C44.0386 32.7174 43.3619 33.3992 41.7101 33.4018C41.225 33.4028 40.7395 33.4125 40.2545 33.3967C39.1633 33.3619 38.3946 32.5938 38.3839 31.5026C38.3695 29.9851 38.3803 28.4677 38.3803 26.8526C37.7204 26.8526 37.0959 26.8434 36.4719 26.8547C35.6541 26.87 34.9718 26.6262 34.5568 25.8749C34.1285 25.1006 34.3135 24.3912 34.7735 23.6843C36.3589 21.2469 37.9198 18.7937 39.4996 16.3527C40.4144 14.9385 41.9728 14.9175 42.8835 16.3184C44.5027 18.81 46.1101 21.3093 47.7037 23.8167C48.6236 25.2652 47.8125 26.7816 46.0958 26.846C45.4457 26.8715 44.7935 26.8511 44.0402 26.8511Z" fill="#1580C1"/>
<path fill-rule="evenodd" clip-rule="evenodd" d="M43.7812 11.8284C42.5873 13.9791 39.7211 13.8615 38.679 11.9199C34.9929 12.4591 30.5193 16.0184 29.4138 21.2382C29.5385 21.3281 29.6745 21.4232 29.8064 21.5223C30.8255 22.291 31.1572 23.6439 30.6307 24.8802C30.114 26.0931 28.959 26.7217 27.5969 26.5311C26.3933 26.3629 25.4421 25.3443 25.3143 24.0865C25.1733 22.6912 25.808 21.6425 27.052 21.0966C27.2877 20.9934 27.5274 20.7041 27.601 20.4526C29.0167 15.5947 32.0066 12.1892 36.7869 10.4168C36.9249 10.3651 37.0629 10.3058 37.206 10.2793C37.967 10.1387 38.472 9.81622 38.9054 9.05775C39.9276 7.26943 42.7503 7.42736 43.6514 9.27548C43.9187 9.82389 44.2596 10.0109 44.7911 10.1714C49.9241 11.719 53.1777 15.1439 54.7095 20.2405C54.8521 20.7179 55.034 21.0138 55.5257 21.2167C56.8116 21.7472 57.3978 23.1415 57.0048 24.5347C56.6062 25.95 55.3601 26.7365 53.8406 26.5331C52.6027 26.3675 51.6097 25.2022 51.5463 23.8836C51.4977 22.8752 51.8381 22.0524 52.6722 21.485C52.9942 21.2653 52.9861 21.0537 52.892 20.7414C51.4926 16.1119 48.4787 13.1409 43.7812 11.8284Z" fill="#1580C1"/>
<path fill-rule="evenodd" clip-rule="evenodd" d="M21.0821 5.94422C20.3451 5.94473 19.6076 5.95853 18.8712 5.94064C18.1689 5.92326 17.7615 5.56294 17.7569 5.00176C17.7528 4.43597 18.1689 4.04755 18.8548 4.0409C20.3073 4.02608 21.7604 4.02608 23.2134 4.0409C23.9361 4.04806 24.3031 4.38691 24.3077 4.9854C24.3128 5.59207 23.9627 5.91917 23.2293 5.94013C22.5142 5.95955 21.7982 5.94371 21.0821 5.94422Z" fill="#1580C1"/>
<path fill-rule="evenodd" clip-rule="evenodd" d="M29.4419 4.03605C30.1789 4.03605 30.9164 4.02429 31.6534 4.03962C32.3322 4.05393 32.7712 4.43828 32.7768 4.98669C32.7824 5.53049 32.3475 5.93221 31.6682 5.93987C30.2152 5.95674 28.7617 5.95725 27.3086 5.93987C26.5675 5.93119 26.2179 5.60511 26.2149 5.0015C26.2123 4.38052 26.59 4.05189 27.3567 4.0386C28.0517 4.02633 28.7468 4.03554 29.4419 4.03605Z" fill="#1580C1"/>
<path fill-rule="evenodd" clip-rule="evenodd" d="M37.9235 5.94474C37.2079 5.94474 36.4924 5.95751 35.7774 5.94116C35.021 5.92378 34.632 5.57521 34.6479 4.96854C34.6632 4.3864 35.0511 4.04499 35.7646 4.03886C37.1946 4.02659 38.6257 4.0271 40.0563 4.03834C40.7917 4.04448 41.1562 4.36033 41.1741 4.95474C41.1935 5.59412 40.8428 5.92173 40.069 5.94064C39.3545 5.95853 38.639 5.94474 37.9235 5.94474Z" fill="#1580C1"/>
</g>
<defs>
<clipPath id="clip0_949_828">
<rect width="58" height="41" fill="white"/>
</clipPath>
</defs>
</svg>
