<svg width="60" height="60" viewBox="0 0 60 60" fill="none" xmlns="http://www.w3.org/2000/svg">
<path fill-rule="evenodd" clip-rule="evenodd" d="M23.9289 55.3096C18.4907 55.3096 13.0811 55.3096 7.64062 55.3096C4.70269 55.3096 2.47688 53.4696 1.95656 50.5857C1.90144 50.2561 1.90144 49.8989 1.90144 49.5692C1.875 44.0213 1.875 38.4728 1.875 32.9249C1.90144 29.6562 4.34494 27.1846 7.61419 27.1846C18.4643 27.1846 29.3407 27.1846 40.2172 27.1846C43.4848 27.1846 45.9564 29.6292 45.9564 32.8973C45.9829 38.4728 45.9829 44.0483 45.9564 49.6238C45.9564 52.8374 43.5129 55.282 40.2701 55.309C34.8054 55.3096 29.3672 55.3096 23.9289 55.3096ZM11.0753 41.2471C12.5034 39.7913 13.9029 38.4458 15.2788 37.0722C15.771 36.5502 16.0742 35.9736 15.8807 35.2323C15.4701 33.7489 13.8219 33.2821 12.7234 34.3531C11.0753 35.9736 9.50869 37.6488 7.80825 39.2148C6.132 40.8078 6.27038 41.8242 7.80825 43.2799C9.45638 44.8178 11.0207 46.4935 12.6424 48.0865C13.4929 48.9106 14.5099 48.9657 15.3053 48.2237C16.158 47.4548 16.1844 46.3563 15.3317 45.5046C13.9316 44.0759 12.5316 42.7028 11.0753 41.2471ZM36.7545 41.2471C35.2999 42.7028 33.8717 44.131 32.4699 45.5592C31.701 46.3281 31.7297 47.4267 32.4699 48.1962C33.1579 48.9106 34.2851 48.9651 35.0254 48.2237C36.948 46.3562 38.8419 44.4612 40.7094 42.5386C41.4519 41.7972 41.4519 40.7256 40.7381 39.9843C38.8419 38.0616 36.9216 36.139 34.9967 34.2439C34.2564 33.5296 33.186 33.5847 32.4435 34.3536C31.701 35.1226 31.701 36.1666 32.4986 36.9906C33.8981 38.3907 35.2999 39.7913 36.7545 41.2471ZM20.7429 49.6514C21.4832 49.6514 22.0063 49.2396 22.3359 48.5528C24.5066 44.2407 26.6756 39.9286 28.8176 35.6164C29.3408 34.573 28.9824 33.529 28.0223 33.0346C27.0334 32.5401 26.0164 32.9249 25.4668 33.9683C25.0821 34.7097 24.7266 35.4516 24.3683 36.1654C22.5818 39.7362 20.8239 43.3064 19.0133 46.8496C18.2162 48.4156 19.4796 49.6789 20.7429 49.6514Z" fill="#009E42"/>
<path fill-rule="evenodd" clip-rule="evenodd" d="M31.8944 13.1501C24.3687 13.1501 16.9268 13.1501 9.39889 13.1501C9.39889 17.2153 9.39889 21.2248 9.39889 25.29C8.73964 25.29 8.16421 25.29 7.5314 25.29C7.50496 25.0976 7.47852 24.9052 7.47852 24.7134C7.47852 20.2916 7.47852 15.8693 7.47852 11.4199C7.50495 8.50838 9.34601 6.25612 12.1456 5.70712C12.5585 5.625 12.9432 5.625 13.3538 5.625C26.3465 5.625 39.3104 5.625 52.3025 5.625C55.7607 5.625 58.1255 8.04207 58.1255 11.5026C58.1255 21.3351 58.1255 31.1681 58.1255 41.0282C58.1255 44.2417 56.0645 46.5761 52.852 46.8512C51.2303 46.9884 49.5822 46.8787 47.8508 46.8787C47.8508 46.2746 47.8508 45.6705 47.8508 44.9837C48.3188 44.9837 48.7868 44.9837 49.2261 44.9837C50.2679 44.9837 51.3136 45.0112 52.3289 44.9837C54.6908 44.9561 56.2293 43.3907 56.2293 41.0287C56.258 31.9652 56.258 22.8741 56.258 13.7824C56.258 13.6176 56.258 13.4252 56.258 13.1783C48.7587 13.1783 41.3427 13.1783 33.7889 13.1783C33.7889 13.4252 33.7889 13.6451 33.7889 13.8926C33.7889 17.2434 33.7889 20.5667 33.7889 23.9175C33.7889 24.1644 33.7625 24.4671 33.6792 24.714C33.5167 25.1809 33.1583 25.3457 32.6903 25.2906C32.2246 25.2354 31.9782 24.9609 31.895 24.4941C31.8685 24.3017 31.895 24.0823 31.895 23.8624C31.895 20.5667 31.895 17.2429 31.895 13.9196C31.8944 13.6991 31.8944 13.4792 31.8944 13.1501ZM16.8695 10.8428C17.7222 10.8428 18.355 10.2111 18.355 9.35944C18.355 8.53538 17.7222 7.90368 16.8695 7.90368C16.0477 7.90368 15.4413 8.50782 15.4413 9.35944C15.4148 10.2111 16.0195 10.8428 16.8695 10.8428ZM14.5913 9.41456C14.5913 8.50837 14.0137 7.90368 13.1345 7.90368C12.284 7.90368 11.6534 8.53537 11.6534 9.38699C11.6798 10.2111 12.284 10.8428 13.0816 10.8428C13.9608 10.8703 14.5627 10.2662 14.5913 9.41456ZM22.0906 9.38699C22.0906 8.50781 21.4842 7.90368 20.6337 7.90368C19.7832 7.90368 19.2055 8.50781 19.1768 9.33187C19.1768 10.2111 19.7545 10.8428 20.605 10.8428C21.4842 10.8428 22.0906 10.2386 22.0906 9.38699Z" fill="#009E42"/>
<path fill-rule="evenodd" clip-rule="evenodd" d="M44.5835 19.6875C47.1389 19.6875 49.6921 19.6875 52.2453 19.6875C53.0429 19.6875 53.4277 19.9896 53.4277 20.5937C53.4541 21.2254 53.0429 21.5826 52.2453 21.5826C47.1102 21.5826 41.9465 21.5826 36.8114 21.5826C36.0138 21.5826 35.5458 21.1432 35.6555 20.5116C35.7387 19.9074 36.1522 19.6875 36.7276 19.6875C39.3652 19.7145 41.9752 19.6875 44.5835 19.6875Z" fill="#009E42"/>
<path fill-rule="evenodd" clip-rule="evenodd" d="M20.1934 19.6875C22.7488 19.6875 25.302 19.6875 27.8552 19.6875C28.6528 19.6875 29.0921 20.0171 29.0634 20.6488C29.0634 21.2529 28.6241 21.5826 27.8287 21.5826C22.7201 21.5826 17.6115 21.5826 12.5029 21.5826C12.4213 21.5826 12.3381 21.5826 12.2548 21.5826C11.6242 21.5274 11.2395 21.1433 11.2659 20.5937C11.2946 20.0441 11.6529 19.7145 12.2835 19.6875C14.9199 19.6875 17.5564 19.6875 20.1934 19.6875Z" fill="#009E42"/>
<path fill-rule="evenodd" clip-rule="evenodd" d="M44.5022 23.4229C47.029 23.4229 49.5276 23.4229 52.0543 23.4229C52.3024 23.4229 52.6039 23.4228 52.852 23.505C53.2913 23.6422 53.5376 24.027 53.4015 24.4387C53.3183 24.7684 53.0432 25.0704 52.7423 25.2628C52.5488 25.4 52.2191 25.3179 51.9446 25.3179C47.0008 25.3179 42.057 25.3179 37.1419 25.3179C36.0962 25.3179 35.6299 25.0434 35.6299 24.3842C35.6299 23.6973 36.0956 23.4229 37.1678 23.4229C39.6113 23.4229 42.057 23.4229 44.5022 23.4229Z" fill="#009E42"/>
<path fill-rule="evenodd" clip-rule="evenodd" d="M18.2973 23.4229C20.2221 23.4229 22.1712 23.4229 24.0938 23.4229C24.5883 23.4229 25.0276 23.5325 25.2475 24.027C25.4675 24.5214 25.1924 25.1255 24.6434 25.2628C24.397 25.3179 24.149 25.3179 23.8745 25.3179C20.1653 25.3179 16.4303 25.3179 12.6948 25.3179C12.5586 25.3179 12.4484 25.3455 12.3123 25.3179C11.6243 25.2903 11.2666 24.9607 11.2666 24.3842C11.2666 23.8076 11.6249 23.4229 12.3387 23.4229C14.3159 23.4229 16.3201 23.4229 18.2973 23.4229Z" fill="#009E42"/>
<path fill-rule="evenodd" clip-rule="evenodd" d="M15.0008 17.8187C14.0958 17.8187 13.2166 17.8187 12.338 17.8187C11.6523 17.7911 11.2945 17.489 11.2658 16.9125C11.2394 16.3083 11.6528 15.9236 12.338 15.9236C14.1222 15.9236 15.9087 15.9236 17.7211 15.9236C18.3803 15.9236 18.7364 16.2808 18.7364 16.8573C18.7364 17.4615 18.4068 17.7911 17.7211 17.8187C16.816 17.8187 15.9082 17.8187 15.0008 17.8187Z" fill="#009E42"/>
<path fill-rule="evenodd" clip-rule="evenodd" d="M39.3103 17.8187C38.4311 17.8187 37.5525 17.8187 36.6733 17.8187C36.0141 17.7911 35.6299 17.4339 35.6299 16.8573C35.6299 16.3078 36.0428 15.9236 36.6733 15.9236C38.4863 15.9236 40.2705 15.9236 42.0851 15.9236C42.7157 15.9236 43.1269 16.3083 43.1269 16.8573C43.1556 17.4339 42.7444 17.7911 42.057 17.8187C41.1491 17.8187 40.2441 17.8187 39.3103 17.8187Z" fill="#009E42"/>
<path fill-rule="evenodd" clip-rule="evenodd" d="M49.198 27.1858C49.6924 27.1858 50.1868 27.1583 50.6548 27.1858C51.2044 27.2134 51.5599 27.5976 51.5599 28.1196C51.5599 28.6691 51.2303 29.0533 50.6548 29.0533C49.7188 29.0809 48.7586 29.0809 47.8249 29.0533C47.2495 29.0533 46.8625 28.6416 46.8911 28.092C46.8911 27.5976 47.2759 27.2128 47.8249 27.1858C48.2906 27.1583 48.73 27.1858 49.198 27.1858Z" fill="#009E42"/>
<path fill-rule="evenodd" clip-rule="evenodd" d="M49.2261 30.9476C49.6918 30.9476 50.1863 30.92 50.6807 30.9476C51.2038 30.9751 51.5048 31.2772 51.5599 31.8267C51.5599 32.3763 51.3135 32.7605 50.7645 32.7881C49.747 32.8432 48.73 32.8432 47.6882 32.7881C47.1651 32.7605 46.8906 32.3763 46.8906 31.8267C46.8906 31.3323 47.2753 30.9751 47.8243 30.9476C48.2901 30.92 48.7581 30.9476 49.2261 30.9476Z" fill="#009E42"/>
<path fill-rule="evenodd" clip-rule="evenodd" d="M48.2905 36.5503C47.3016 36.5503 46.8623 36.2758 46.891 35.6166C46.891 34.9573 47.3303 34.6553 48.3192 34.6553C49.3367 34.6553 49.776 35.04 49.6663 35.7814C49.5825 36.3855 49.2529 36.5503 48.2905 36.5503Z" fill="#009E42"/>
</svg>
