<?xml version="1.0" encoding="UTF-8"?>
<svg preserveAspectRatio="xMidYMid" version="1.1" viewBox="0 0 257 128" xmlns="https://www.w3.org/2000/svg">
<path d="m1.8621 124.98h21.17v-90.12h-21.17v90.12zm10.542-101.94c6.6315 0 11.818-5.1013 11.818-11.477 0-6.4616-5.1861-11.563-11.818-11.563-6.5464 0-11.733 5.1013-11.733 11.563 0 6.3765 5.1861 11.477 11.733 11.477zm81.111-22.786c-35.792 0-58.239 24.401-58.239 63.425 0 39.024 22.444 63.34 58.239 63.34 35.707 0 58.154-24.316 58.154-63.34 0-39.024-22.444-63.425-58.154-63.425zm0 18.704c21.85 0 35.792 17.344 35.792 44.72 0 27.291-13.943 44.635-35.792 44.635-21.935 0-35.792-17.344-35.792-44.635 0-27.376 13.858-44.72 35.792-44.72zm67.084 71.502c0.93522 22.616 19.469 36.558 47.696 36.558 29.672 0 48.377-14.623 48.377-37.919 0-18.279-10.542-28.566-35.453-34.262l-14.113-3.2308c-15.048-3.5707-21.255-8.3318-21.255-16.494 0-10.202 9.3522-17.004 23.21-17.004 14.028 0 23.634 6.8866 24.655 18.364h20.915c-0.51012-21.595-18.364-36.219-45.399-36.219-26.697 0-45.656 14.708-45.656 36.474 0 17.514 10.712 28.397 33.326 33.583l15.899 3.741c15.474 3.6558 21.765 8.7569 21.765 17.599 0 10.202-10.287 17.514-25.08 17.514-14.963 0-26.27-7.3966-27.631-18.704h-21.255l-0.001089-6.53e-4z" fill="#FFF"/>
</svg>
