
<svg version="1.1" xmlns="https://www.w3.org/2000/svg" width="170" height="170">
<path d="M0 0 C4.56584897 2.10291163 8.83715098 4.63932589 13.125 7.25 C14.28944052 7.94036309 15.45480004 8.62917855 16.62109375 9.31640625 C31.39460336 18.09190504 31.39460336 18.09190504 34 22 C34.26742554 24.07345581 34.26742554 24.07345581 34.29052734 26.48388672 C34.30328705 27.38847626 34.31604675 28.2930658 34.32919312 29.22506714 C34.33141876 30.20009186 34.33364441 31.17511658 34.3359375 32.1796875 C34.3425943 33.18460236 34.3492511 34.18951721 34.35610962 35.22488403 C34.36623814 37.35156422 34.37092658 39.47827619 34.37060547 41.60498047 C34.37497403 44.85567766 34.41127951 48.10501226 34.44921875 51.35546875 C34.45508779 53.42187036 34.4590566 55.48827841 34.4609375 57.5546875 C34.47530853 58.52566376 34.48967957 59.49664001 34.50448608 60.49703979 C34.47616885 64.68896356 34.41653147 67.28430065 32.27832031 70.95825195 C29.97148048 73.02555816 27.78368931 74.59383715 25.0859375 76.11328125 C24.16039062 76.63857422 23.23484375 77.16386719 22.28125 77.70507812 C21.3221875 78.23552734 20.363125 78.76597656 19.375 79.3125 C18.40820312 79.86228516 17.44140625 80.41207031 16.4453125 80.97851562 C9.29156638 85 9.29156638 85 7 85 C6.92405187 77.79181655 6.87144322 70.58373595 6.83520508 63.37524414 C6.82010119 60.92207992 6.79961679 58.46894276 6.77368164 56.01586914 C6.73736943 52.49358445 6.72028964 48.97165619 6.70703125 45.44921875 C6.69154739 44.34913986 6.67606354 43.24906097 6.66011047 42.11564636 C6.65988388 41.09481461 6.65965729 40.07398285 6.65942383 39.0222168 C6.65276199 38.12286911 6.64610016 37.22352142 6.63923645 36.29692078 C7 34 7 34 8.32987976 32.1743927 C10 31 10 31 13.0625 31.1875 C16 32 16 32 18 34 C18.22705078 36.88916016 18.22705078 36.88916016 18.1953125 40.5390625 C18.18886719 41.84101562 18.18242188 43.14296875 18.17578125 44.484375 C18.15906929 45.86458595 18.14213939 47.24479429 18.125 48.625 C18.11497006 50.01301452 18.10584423 51.40103589 18.09765625 52.7890625 C18.07401863 56.19288026 18.04106867 59.59635506 18 63 C18.78375 62.505 19.5675 62.01 20.375 61.5 C23 60 23 60 25 60 C26.75523449 43.73657707 26.75523449 43.73657707 22.4453125 28.74169922 C18.51621921 25.3422051 13.95876091 23.51694544 9.09960938 21.80712891 C6.20927753 20.69603157 3.83533934 19.02604794 1.3125 17.25 C-2.14436229 15.16885373 -2.14436229 15.16885373 -6.1875 15.375 C-9.12533172 17.02143582 -9.12533172 17.02143582 -12.25 19.25 C-15.51178647 21.22750366 -17.60661872 21.04301185 -21.3125 20.3125 C-23.72085166 19.71133412 -25.7812226 19.1093887 -28 18 C-28 17.34 -28 16.68 -28 16 C-27.01 15.67 -26.02 15.34 -25 15 C-25.99 14.34 -26.98 13.68 -28 13 C-28 12.34 -28 11.68 -28 11 C-24.84920712 9.13833152 -21.67719723 7.31617876 -18.5 5.5 C-17.613125 4.97535156 -16.72625 4.45070313 -15.8125 3.91015625 C-5.89929895 -1.70246493 -5.89929895 -1.70246493 0 0 Z " fill="#252122" transform="translate(90,12)"/>
<path d="M0 0 C0.99386719 0.02707031 1.98773438 0.05414062 3.01171875 0.08203125 C4.15060547 0.13423828 4.15060547 0.13423828 5.3125 0.1875 C4.3125 3.1875 4.3125 3.1875 2.3125 4.1875 C3.3025 4.5175 4.2925 4.8475 5.3125 5.1875 C4.3125 8.1875 4.3125 8.1875 1.3125 10.1875 C0.76774022 12.78020699 0.38849851 15.19201945 0.125 17.8125 C0.04314453 18.51890625 -0.03871094 19.2253125 -0.12304688 19.953125 C-0.32330725 21.6965683 -0.50699401 23.44190086 -0.6875 25.1875 C1.0759375 25.7134375 1.0759375 25.7134375 2.875 26.25 C9.95423168 28.58705405 16.60569696 31.96222581 23.3125 35.1875 C23.32708252 34.56705811 23.34166504 33.94661621 23.35668945 33.30737305 C23.43116588 30.49595367 23.52782564 27.68572251 23.625 24.875 C23.64755859 23.89853516 23.67011719 22.92207031 23.69335938 21.91601562 C23.72880859 20.97822266 23.76425781 20.04042969 23.80078125 19.07421875 C23.82696533 18.21014404 23.85314941 17.34606934 23.88012695 16.45581055 C24.39620192 13.74838392 25.09333792 12.79054169 27.3125 11.1875 C31.73355263 11.60855263 31.73355263 11.60855263 33.3125 13.1875 C33.40620624 14.96741924 33.42994271 16.75106739 33.42602539 18.53344727 C33.42594986 19.6745546 33.42587433 20.81566193 33.42579651 21.99134827 C33.42063522 23.2329924 33.41547394 24.47463654 33.41015625 25.75390625 C33.4087413 27.01766586 33.40732635 28.28142548 33.40586853 29.58348083 C33.40120582 32.94874889 33.3922148 36.3139499 33.38116455 39.67919922 C33.37094846 43.1109967 33.36637049 46.54280109 33.36132812 49.97460938 C33.3502738 56.71225824 33.3335171 63.44987525 33.3125 70.1875 C27.16015625 70.28515625 27.16015625 70.28515625 25.3125 70.1875 C24.3125 69.1875 24.3125 69.1875 24.19897461 67.42163086 C24.20421143 66.67276611 24.20944824 65.92390137 24.21484375 65.15234375 C24.21806641 64.34345703 24.22128906 63.53457031 24.22460938 62.70117188 C24.23717773 61.4259668 24.23717773 61.4259668 24.25 60.125 C24.25451172 59.27099609 24.25902344 58.41699219 24.26367188 57.53710938 C24.27549627 55.42054337 24.29343231 53.30401315 24.3125 51.1875 C23.11625 50.836875 21.92 50.48625 20.6875 50.125 C13.8958424 47.88646966 7.64220905 44.47390655 1.3125 41.1875 C0.9825 45.4775 0.6525 49.7675 0.3125 54.1875 C-4.6875 53.1875 -4.6875 53.1875 -6.96899414 51.26416016 C-9.44551606 46.83041542 -9.24277071 42.96050239 -9.18359375 37.9609375 C-9.18504898 36.97630524 -9.18650421 35.99167297 -9.18800354 34.97720337 C-9.18634695 32.90111321 -9.1748126 30.82501046 -9.15405273 28.74902344 C-9.12503674 25.56652935 -9.1334612 22.38569514 -9.14648438 19.203125 C-9.14024864 17.18488772 -9.13185899 15.1666557 -9.12109375 13.1484375 C-9.12402939 12.19528656 -9.12696503 11.24213562 -9.12998962 10.26010132 C-9.11730545 9.37553253 -9.10462128 8.49096375 -9.09155273 7.57958984 C-9.08614975 6.80191254 -9.08074677 6.02423523 -9.07518005 5.22299194 C-8.09199294 0.06082425 -4.6252873 -0.16324543 0 0 Z " fill="#2C7DBA" transform="translate(56.6875,31.8125)"/>
<path d="M0 0 C0.33 0 0.66 0 1 0 C1.10151557 6.45941732 1.17151376 12.91862852 1.21972656 19.37866211 C1.23982767 21.57568042 1.26711306 23.77264532 1.30175781 25.96948242 C1.35034093 29.12952866 1.37298405 32.28886687 1.390625 35.44921875 C1.41127014 36.42960617 1.43191528 37.40999359 1.45318604 38.42008972 C1.45457157 42.64184602 1.42857698 45.26007409 -0.71728516 48.96484375 C-3.02683822 51.02392764 -5.21920022 52.59546461 -7.9140625 54.11328125 C-8.83960937 54.63857422 -9.76515625 55.16386719 -10.71875 55.70507812 C-11.6778125 56.23552734 -12.636875 56.76597656 -13.625 57.3125 C-14.59179688 57.86228516 -15.55859375 58.41207031 -16.5546875 58.97851562 C-23.70843362 63 -23.70843362 63 -26 63 C-26.07594813 55.79181655 -26.12855678 48.58373595 -26.16479492 41.37524414 C-26.17989881 38.92207992 -26.20038321 36.46894276 -26.22631836 34.01586914 C-26.26263057 30.49358445 -26.27971036 26.97165619 -26.29296875 23.44921875 C-26.30845261 22.34913986 -26.32393646 21.24906097 -26.33988953 20.11564636 C-26.34011612 19.09481461 -26.34034271 18.07398285 -26.34057617 17.0222168 C-26.34723801 16.12286911 -26.35389984 15.22352142 -26.36076355 14.29692078 C-26 12 -26 12 -24.67012024 10.1743927 C-23 9 -23 9 -19.9375 9.1875 C-17 10 -17 10 -15 12 C-14.77294922 14.88916016 -14.77294922 14.88916016 -14.8046875 18.5390625 C-14.81113281 19.84101562 -14.81757812 21.14296875 -14.82421875 22.484375 C-14.84093071 23.86458595 -14.85786061 25.24479429 -14.875 26.625 C-14.88502994 28.01301452 -14.89415577 29.40103589 -14.90234375 30.7890625 C-14.92598137 34.19288026 -14.95893133 37.59635506 -15 41 C-14.21625 40.505 -13.4325 40.01 -12.625 39.5 C-10 38 -10 38 -8 38 C-8.11811006 33.19432577 -8.24234823 28.38886432 -8.37231445 23.58349609 C-8.41567538 21.94812347 -8.45734961 20.31270523 -8.49731445 18.67724609 C-8.55498912 16.32896159 -8.61869129 13.98090696 -8.68359375 11.6328125 C-8.70030624 10.89942657 -8.71701874 10.16604065 -8.73423767 9.41043091 C-8.78637962 5.57797692 -8.78637962 5.57797692 -10 2 C-9.01 2.33 -8.02 2.66 -7 3 C-6.505 17.355 -6.505 17.355 -6 32 C-4.02 32 -2.04 32 0 32 C0 21.44 0 10.88 0 0 Z " fill="#3F3D3E" transform="translate(123,34)"/>
<path d="M0 0 C0.99386719 0.02707031 1.98773438 0.05414062 3.01171875 0.08203125 C4.15060547 0.13423828 4.15060547 0.13423828 5.3125 0.1875 C4.3125 3.1875 4.3125 3.1875 2.3125 4.1875 C3.3025 4.5175 4.2925 4.8475 5.3125 5.1875 C4.3125 8.1875 4.3125 8.1875 1.3125 10.1875 C0.76774022 12.78020699 0.38849851 15.19201945 0.125 17.8125 C0.04314453 18.51890625 -0.03871094 19.2253125 -0.12304688 19.953125 C-0.32330725 21.6965683 -0.50699401 23.44190086 -0.6875 25.1875 C1.0759375 25.7134375 1.0759375 25.7134375 2.875 26.25 C9.95423168 28.58705405 16.60569696 31.96222581 23.3125 35.1875 C23.32708252 34.56705811 23.34166504 33.94661621 23.35668945 33.30737305 C23.43116588 30.49595367 23.52782564 27.68572251 23.625 24.875 C23.64755859 23.89853516 23.67011719 22.92207031 23.69335938 21.91601562 C23.72880859 20.97822266 23.76425781 20.04042969 23.80078125 19.07421875 C23.82696533 18.21014404 23.85314941 17.34606934 23.88012695 16.45581055 C24.40284775 13.71351869 25.02961224 12.77484827 27.3125 11.1875 C28.6325 11.1875 29.9525 11.1875 31.3125 11.1875 C32.45167218 14.60501653 32.42588481 17.22237937 32.41015625 20.82421875 C32.40693359 22.12294922 32.40371094 23.42167969 32.40039062 24.75976562 C32.39203531 26.13151108 32.38357037 27.50325587 32.375 28.875 C32.36998335 30.25846195 32.36542073 31.64192563 32.36132812 33.02539062 C32.34952529 36.41280395 32.33306019 39.80013033 32.3125 43.1875 C31.65548096 42.75268311 30.99846191 42.31786621 30.3215332 41.86987305 C26.71247431 39.85202113 23.07923841 38.57545311 19.16796875 37.26953125 C18.39818192 37.00742355 17.62839508 36.74531586 16.83528137 36.4752655 C14.39199607 35.64472687 11.94608254 34.82225913 9.5 34 C7.83640814 33.43607879 6.1729946 32.87163124 4.50976562 32.30664062 C0.4460493 30.92749242 -3.62004239 29.55557281 -7.6875 28.1875 C-7.94201584 24.08449077 -8.16176446 19.98034524 -8.375 15.875 C-8.44783203 14.70775391 -8.52066406 13.54050781 -8.59570312 12.33789062 C-8.65048828 11.21962891 -8.70527344 10.10136719 -8.76171875 8.94921875 C-8.81932373 7.91756592 -8.87692871 6.88591309 -8.9362793 5.82299805 C-8.6875 3.1875 -8.6875 3.1875 -7.3515625 1.34570312 C-4.89941727 -0.36101298 -2.94432355 -0.1039173 0 0 Z " fill="#1771B4" transform="translate(56.6875,31.8125)"/>
<path d="M0 0 C2.64 0 5.28 0 8 0 C8 11.88 8 23.76 8 36 C4.66666667 36 1.33333333 36 -2 36 C-2.495 36.495 -2.495 36.495 -3 37 C-9.94600907 37.81036772 -9.94600907 37.81036772 -12.60546875 35.765625 C-16.63662401 30.98971085 -17.41488322 27.11952747 -17 21 C-15.43722469 16.93678419 -13.96623493 13.98311746 -10 12 C-3.84848485 11.57575758 -3.84848485 11.57575758 -1 13 C-0.67 8.71 -0.34 4.42 0 0 Z M-6.5625 19.1875 C-8.42324579 21.53365773 -8.85748179 23.00711758 -9 26 C-7.66457328 28.78307606 -7.66457328 28.78307606 -6 31 C-4.35 30.34 -2.7 29.68 -1 29 C0.15274469 24.13699887 0.15274469 24.13699887 -1.3125 19.5625 C-3.45955838 17.57448299 -4.21833493 17.40593455 -6.5625 19.1875 Z " fill="#1172B9" transform="translate(56,120)"/>
<path d="M0 0 C0.66 0.66 1.32 1.32 2 2 C2.33 1.67 2.66 1.34 3 1 C5.64 1 8.28 1 11 1 C11 8.59 11 16.18 11 24 C7.66666667 24 4.33333333 24 1 24 C0.67 24.33 0.34 24.66 0 25 C-7.09832134 25.70983213 -7.09832134 25.70983213 -10.9375 22.6875 C-14.44636738 18.11533947 -14.70464719 13.58004398 -14 8 C-10.50427104 1.37016921 -7.47699918 -0.54378176 0 0 Z M-5 8 C-6.00668717 11.37942732 -6.00668717 11.37942732 -6 15 C-4.7089129 17.4212319 -4.7089129 17.4212319 -3 19 C-1.35 18.34 0.3 17.68 2 17 C2.85387105 13.69432511 2.85387105 13.69432511 3 10 C1.26989612 7.51768273 1.26989612 7.51768273 -1 6 C-2.46225016 5.90754997 -2.46225016 5.90754997 -5 8 Z " fill="#2980C0" transform="translate(108,132)"/>
<path d="M0 0 C3.50745952 2.04601805 5.73959779 4.10421136 7 8 C7 9.98 7 11.96 7 14 C1.72 14 -3.56 14 -9 14 C-8.01 15.65 -7.02 17.3 -6 19 C-5.319375 18.649375 -4.63875 18.29875 -3.9375 17.9375 C-0.2912211 16.77379397 2.28489978 17.27154898 6 18 C6 21 6 21 4.6875 22.625 C1.09061959 25.55579144 -3.05159286 25.38787213 -7.484375 25.35546875 C-11.60222543 24.77359858 -13.23742103 23.0459204 -16 20 C-17.35504519 15.93486443 -17.53675858 12.25054768 -17 8 C-12.90491717 0.2334636 -8.31488408 -1.08917012 0 0 Z M-9 7 C-9 7.66 -9 8.32 -9 9 C-6.36 9 -3.72 9 -1 9 C-1.33 8.01 -1.66 7.02 -2 6 C-5.37104174 4.53921524 -5.78149208 4.85432805 -9 7 Z " fill="#2980C0" transform="translate(85,132)"/>
<path d="M0 0 C2.09504323 1.05695719 4.15140488 2.19220286 6.17578125 3.37890625 C6.74580368 3.71043198 7.31582611 4.0419577 7.90312195 4.38352966 C9.71021101 5.43657063 11.51135275 6.4993345 13.3125 7.5625 C14.54193713 8.28125035 15.7717512 8.99935633 17.00195312 9.71679688 C20.00570084 11.47042814 23.00419744 13.232822 26 15 C26 17.66666667 26 20.33333333 26 23 C24.57728361 22.18701921 23.15465961 21.37387645 21.73242188 20.56005859 C20.48263443 19.84678611 19.2312992 19.13621955 17.97851562 18.42822266 C14.66611883 16.55114265 11.39144799 14.63742107 8.1640625 12.6171875 C7.54934082 12.24142578 6.93461914 11.86566406 6.30126953 11.47851562 C4.57833448 10.42299022 2.86697645 9.34863707 1.15625 8.2734375 C-1.94915405 6.68365237 -1.94915405 6.68365237 -5.203125 7.6484375 C-8.1675131 8.99195626 -8.1675131 8.99195626 -11.25 11.25 C-14.51178647 13.22750366 -16.60661872 13.04301185 -20.3125 12.3125 C-22.72085166 11.71133412 -24.7812226 11.1093887 -27 10 C-27 9.34 -27 8.68 -27 8 C-23.09128678 6.10148215 -21.16820326 6.14498395 -17 7 C-14.91666667 6.16666667 -14.91666667 6.16666667 -13 5 C-11.6757713 4.63215869 -10.34386088 4.28797019 -9 4 C-9.33 3.34 -9.66 2.68 -10 2 C-6.16871792 -0.73663005 -4.50343986 -1.33103199 0 0 Z " fill="#0D0C34" transform="translate(89,20)"/>
<path d="M0 0 C3 2 3 2 5 4 C3.375 5.5625 3.375 5.5625 1 7 C-2.25 6.6875 -2.25 6.6875 -5 6 C-5 6.66 -5 7.32 -5 8 C-4.44570312 8.26554688 -3.89140625 8.53109375 -3.3203125 8.8046875 C-2.59585938 9.15789062 -1.87140625 9.51109375 -1.125 9.875 C-0.04605469 10.39707031 -0.04605469 10.39707031 1.0546875 10.9296875 C3 12 3 12 5 14 C5.4375 17.375 5.4375 17.375 5 21 C2.18872856 24.42623707 0.46405021 24.94107299 -3.9375 25.5 C-8.27424255 25.30250129 -10.65997736 23.67201812 -14 21 C-13.505 19.515 -13.505 19.515 -13 18 C-10.1875 17.375 -10.1875 17.375 -7 17 C-6.01 17.66 -5.02 18.32 -4 19 C-3.67 18.34 -3.34 17.68 -3 17 C-3.55429688 16.73445313 -4.10859375 16.46890625 -4.6796875 16.1953125 C-5.40414062 15.84210938 -6.12859375 15.48890625 -6.875 15.125 C-7.59429687 14.77695313 -8.31359375 14.42890625 -9.0546875 14.0703125 C-11 13 -11 13 -13 11 C-13.4375 7.625 -13.4375 7.625 -13 4 C-9.43592826 -0.34371244 -5.32623879 -1.116792 0 0 Z " fill="#2980C0" transform="translate(138,132)"/>
<path d="M0 0 C2.64 0 5.28 0 8 0 C8 11.55 8 23.1 8 35 C5.36 35 2.72 35 0 35 C0 23.45 0 11.9 0 0 Z " fill="#1172B9" transform="translate(26,121)"/>
<path d="M0 0 C2.9375 0.8125 2.9375 0.8125 4.9375 2.8125 C5.16455078 5.88525391 5.16455078 5.88525391 5.1328125 9.7890625 C5.1299826 10.47431 5.12715271 11.1595575 5.12423706 11.86557007 C5.11303281 14.05639027 5.08792859 16.24680316 5.0625 18.4375 C5.05247048 19.9218691 5.04334458 21.4062446 5.03515625 22.890625 C5.01309294 26.53138261 4.97856176 30.17190156 4.9375 33.8125 C4.2775 33.8125 3.6175 33.8125 2.9375 33.8125 C2.9375 29.5225 2.9375 25.2325 2.9375 20.8125 C0.9575 20.8125 -1.0225 20.8125 -3.0625 20.8125 C-3.0625 28.7325 -3.0625 36.6525 -3.0625 44.8125 C-2.4025 45.1425 -1.7425 45.4725 -1.0625 45.8125 C-2.4375 47.3125 -2.4375 47.3125 -4.0625 48.8125 C-4.7225 48.8125 -5.3825 48.8125 -6.0625 48.8125 C-6.13847206 42.31640094 -6.19106672 35.82041615 -6.22729492 29.32397461 C-6.24239525 27.11331908 -6.26287709 24.90269357 -6.28881836 22.69213867 C-6.32514655 19.51734007 -6.34221384 16.34293703 -6.35546875 13.16796875 C-6.37095261 12.17725876 -6.38643646 11.18654877 -6.40238953 10.16581726 C-6.40261612 9.24508926 -6.40284271 8.32436127 -6.40307617 7.37573242 C-6.40973801 6.5652092 -6.41639984 5.75468597 -6.42326355 4.91960144 C-5.72905784 0.86497384 -3.98622706 -0.24405472 0 0 Z " fill="#545156" transform="translate(103.0625,43.1875)"/>
<path d="M0 0 C2.64 0 5.28 0 8 0 C8.99 2.31 9.98 4.62 11 7 C12.96756452 6.96877057 12.96756452 6.96877057 15 6 C16.3045656 3.00384054 16.3045656 3.00384054 17 0 C19.64 0 22.28 0 25 0 C25 4.29 25 8.58 25 13 C21.66666667 13 18.33333333 13 15 13 C14.67 13.33 14.34 13.66 14 14 C10.99777545 14.35025953 8.90651348 14.56378698 6 14 C2.20999793 10.77446632 0.83399952 8.53490175 0.1875 3.625 C0.125625 2.42875 0.06375 1.2325 0 0 Z " fill="#2980C0" transform="translate(39,143)"/>
<path d="M0 0 C0.66 0.66 1.32 1.32 2 2 C2.33 1.67 2.66 1.34 3 1 C5.67058851 0.85884839 8.32432238 0.95752893 11 1 C11 4.3 11 7.6 11 11 C3.61538462 11.49230769 3.61538462 11.49230769 0.5 9 C0.005 8.34 -0.49 7.68 -1 7 C-1.99 7.33 -2.98 7.66 -4 8 C-4.33 8.99 -4.66 9.98 -5 11 C-7.97 11 -10.94 11 -14 11 C-13.49697411 6.59852343 -11.97554199 4.24604581 -9 1 C-5.98675805 -0.50662097 -3.31713623 -0.17770373 0 0 Z " fill="#1172B9" transform="translate(108,132)"/>
<path d="M0 0 C1.13917218 3.41751653 1.11338481 6.03487937 1.09765625 9.63671875 C1.09443359 10.93544922 1.09121094 12.23417969 1.08789062 13.57226562 C1.07953531 14.94401108 1.07107037 16.31575587 1.0625 17.6875 C1.05748335 19.07096195 1.05292073 20.45442563 1.04882812 21.83789062 C1.03702529 25.22530395 1.02056019 28.61263033 1 32 C0.23300781 31.52949219 -0.53398438 31.05898437 -1.32421875 30.57421875 C-3.8333981 29.09801542 -6.27646362 28.01159923 -9 27 C-8.01 26.67 -7.02 26.34 -6 26 C-6 17.75 -6 9.5 -6 1 C-4 0 -4 0 0 0 Z " fill="#0F70B8" transform="translate(88,43)"/>
<path d="M0 0 C3.53714641 2.06333541 5.62328635 4.12017062 7 8 C7 8.99 7 9.98 7 11 C-0.92 11 -8.84 11 -17 11 C-16.01221524 6.06107618 -15.26400276 4.56073029 -12 1 C-8.29778834 -0.85110583 -4.04093083 -0.46454795 0 0 Z M-9 7 C-9 7.66 -9 8.32 -9 9 C-6.36 9 -3.72 9 -1 9 C-1.33 8.01 -1.66 7.02 -2 6 C-5.37104174 4.53921524 -5.78149208 4.85432805 -9 7 Z " fill="#1172B9" transform="translate(85,132)"/>
<path d="M0 0 C1.65 0 3.3 0 5 0 C5 1.98 5 3.96 5 6 C6.65 6 8.3 6 10 6 C10 4.02 10 2.04 10 0 C11.32 0 12.64 0 14 0 C14 5.28 14 10.56 14 16 C12.68 16 11.36 16 10 16 C10 14.02 10 12.04 10 10 C8.35 10 6.7 10 5 10 C5 11.98 5 13.96 5 16 C3.35 16 1.7 16 0 16 C0 10.72 0 5.44 0 0 Z " fill="#000000" transform="translate(67,111)"/>
<path d="M0 0 C1.32 0 2.64 0 4 0 C4 5.61 4 11.22 4 17 C-4.75 17.125 -4.75 17.125 -7 16 C-7.96324999 12.66567313 -8.38278825 10.80810852 -6.875 7.625 C-5 6 -5 6 -2.3125 5.75 C-1.549375 5.8325 -0.78625 5.915 0 6 C0 4.02 0 2.04 0 0 Z M-2 9 C-2.33 10.32 -2.66 11.64 -3 13 C-2.01 13 -1.02 13 0 13 C-0.33 11.68 -0.66 10.36 -1 9 C-1.33 9 -1.66 9 -2 9 Z " fill="#000000" transform="translate(111,110)"/>
<path d="M0 0 C1.32 0 2.64 0 4 0 C4 5.61 4 11.22 4 17 C-4.75 17.125 -4.75 17.125 -7 16 C-7.96324999 12.66567313 -8.38278825 10.80810852 -6.875 7.625 C-5 6 -5 6 -2.3125 5.75 C-1.549375 5.8325 -0.78625 5.915 0 6 C0 4.02 0 2.04 0 0 Z M-2 9 C-2.33 10.32 -2.66 11.64 -3 13 C-2.01 13 -1.02 13 0 13 C-0.33 11.68 -0.66 10.36 -1 9 C-1.33 9 -1.66 9 -2 9 Z " fill="#000000" transform="translate(97,110)"/>
<path d="M0 0 C3 2 3 2 5 4 C3.375 5.5625 3.375 5.5625 1 7 C-2.25 6.6875 -2.25 6.6875 -5 6 C-5 6.66 -5 7.32 -5 8 C-2.525 8.99 -2.525 8.99 0 10 C0 10.33 0 10.66 0 11 C-4.29 11 -8.58 11 -13 11 C-13.60247445 4.73426573 -13.60247445 4.73426573 -11 1.5625 C-7.18524666 -0.4243507 -4.21970038 -0.88477589 0 0 Z " fill="#1172B9" transform="translate(138,132)"/>
<path d="M0 0 C0.33 0 0.66 0 1 0 C0.63125613 6.39156035 0.63125613 6.39156035 -1.9453125 8.875 C-6.06262024 11.73921408 -10.33989925 14.25348774 -14.6875 16.75 C-15.55439453 17.25660156 -16.42128906 17.76320313 -17.31445312 18.28515625 C-18.14267578 18.76339844 -18.97089844 19.24164063 -19.82421875 19.734375 C-20.57791748 20.16975586 -21.33161621 20.60513672 -22.1081543 21.05371094 C-24 22 -24 22 -26 22 C-25.65234375 19.3828125 -25.65234375 19.3828125 -24 16 C-20.7357261 13.56497855 -17.17134755 11.74767338 -13.5625 9.875 C-11.64288354 8.85955998 -9.72732679 7.83639894 -7.81640625 6.8046875 C-6.53938843 6.13928955 -6.53938843 6.13928955 -5.23657227 5.46044922 C-2.85165243 3.90313119 -1.60595461 2.32299299 0 0 Z " fill="#000033" transform="translate(123,75)"/>
<path d="M0 0 C5.56664924 1.66086912 10.65786353 4.11071736 15.875 6.625 C16.75414063 7.04523438 17.63328125 7.46546875 18.5390625 7.8984375 C20.69422878 8.9291692 22.84779922 9.96309426 25 11 C25 12.65 25 14.3 25 16 C18.99459007 14.3142709 13.54035746 11.95288392 8 9.125 C7.3289624 8.79757813 6.6579248 8.47015625 5.96655273 8.1328125 C1.21701114 5.63837445 1.21701114 5.63837445 0.0625 2.2421875 C0.041875 1.50226563 0.02125 0.76234375 0 0 Z " fill="#000033" transform="translate(56,67)"/>
<path d="M0 0 C1.60875 -0.061875 3.2175 -0.12375 4.875 -0.1875 C5.77992188 -0.22230469 6.68484375 -0.25710937 7.6171875 -0.29296875 C8.79667969 -0.14794922 8.79667969 -0.14794922 10 0 C12.67927341 4.01891012 12.15601248 6.24161923 12 11 C10.35 11 8.7 11 7 11 C7 8.69 7 6.38 7 4 C6.34 4 5.68 4 5 4 C5 6.31 5 8.62 5 11 C3.35 11 1.7 11 0 11 C0 7.37 0 3.74 0 0 Z " fill="#000000" transform="translate(130,116)"/>
<path d="M0 0 C2.64 0 5.28 0 8 0 C8 4.29 8 8.58 8 13 C5.36 13 2.72 13 0 13 C0 8.71 0 4.42 0 0 Z " fill="#2980C0" transform="translate(26,143)"/>
<path d="M0 0 C3.5625 0.375 3.5625 0.375 5.5 2.25 C6.5625 4.375 6.5625 4.375 6.5625 6.375 C4.5825 6.705 2.6025 7.035 0.5625 7.375 C2.2125 7.375 3.8625 7.375 5.5625 7.375 C4.9025 8.695 4.2425 10.015 3.5625 11.375 C0.1875 11.5 0.1875 11.5 -3.4375 11.375 C-5.4375 9.375 -5.4375 9.375 -5.6875 5.875 C-5.34932731 1.14058227 -4.70855617 0.51366067 0 0 Z M-0.4375 2.375 C-0.7675 3.035 -1.0975 3.695 -1.4375 4.375 C-0.4475 4.045 0.5425 3.715 1.5625 3.375 C0.9025 3.045 0.2425 2.715 -0.4375 2.375 Z " fill="#4D4D4D" transform="translate(122.4375,115.625)"/>
<path d="M0 0 C2.9375 0.8125 2.9375 0.8125 4.9375 2.8125 C5.29773622 5.62234248 5.32082602 7.19491919 3.8125 9.625 C1.10304166 11.34099028 -0.92545684 11.146228 -4.0625 10.8125 C-6.0625 8.8125 -6.0625 8.8125 -6.375 5.875 C-6.0625 2.8125 -6.0625 2.8125 -4.9375 0.875 C-3.0625 -0.1875 -3.0625 -0.1875 0 0 Z " fill="#1774B8" transform="translate(103.0625,43.1875)"/>
<path d="M0 0 C2.31 0 4.62 0 7 0 C7 2.31 7 4.62 7 7 C5.02 7 3.04 7 1 7 C1 14.92 1 22.84 1 31 C1.66 31.33 2.32 31.66 3 32 C1.515 32.495 1.515 32.495 0 33 C0 22.11 0 11.22 0 0 Z " fill="#252122" transform="translate(99,57)"/>
<path d="M0 0 C2.375 -0.125 2.375 -0.125 5 0 C5.66 0.66 6.32 1.32 7 2 C7.33 1.34 7.66 0.68 8 0 C9.32 0 10.64 0 12 0 C12 1.98 12 3.96 12 6 C10.54176788 6.0270043 9.08339325 6.04639787 7.625 6.0625 C6.81289062 6.07410156 6.00078125 6.08570312 5.1640625 6.09765625 C3 6 3 6 1 5 C0.375 2.4375 0.375 2.4375 0 0 Z " fill="#4D4D4D" transform="translate(103,121)"/>
<path d="M0 0 C2.375 -0.125 2.375 -0.125 5 0 C5.66 0.66 6.32 1.32 7 2 C7.33 1.34 7.66 0.68 8 0 C9.32 0 10.64 0 12 0 C12 1.98 12 3.96 12 6 C10.54176788 6.0270043 9.08339325 6.04639787 7.625 6.0625 C6.81289062 6.07410156 6.00078125 6.08570312 5.1640625 6.09765625 C3 6 3 6 1 5 C0.375 2.4375 0.375 2.4375 0 0 Z " fill="#4D4D4D" transform="translate(89,121)"/>
<path d="M0 0 C1.19625 0.12375 2.3925 0.2475 3.625 0.375 C4.615 2.025 5.605 3.675 6.625 5.375 C2.665 5.375 -1.295 5.375 -5.375 5.375 C-4.14642857 0.46071429 -4.14642857 0.46071429 0 0 Z M-0.375 2.375 C-0.705 3.035 -1.035 3.695 -1.375 4.375 C-0.385 4.045 0.605 3.715 1.625 3.375 C0.965 3.045 0.305 2.715 -0.375 2.375 Z " fill="#000000" transform="translate(122.375,115.625)"/>
<path d="M0 0 C2.97 0 5.94 0 9 0 C9 1.98 9 3.96 9 6 C2.84765625 6.09765625 2.84765625 6.09765625 1 6 C0 5 0 5 -0.0625 2.4375 C-0.041875 1.633125 -0.02125 0.82875 0 0 Z " fill="#000134" transform="translate(81,96)"/>
<path d="M0 0 C2.19726562 1.85546875 2.19726562 1.85546875 4.39453125 3.7109375 C5.8655046 4.89201099 7.43037794 5.95358529 9 7 C9 8.32 9 9.64 9 11 C5.54164207 10.71180351 4.21619267 10.21034962 1.6875 7.75 C-0.12328851 4.7990854 -0.38684492 3.38489309 0 0 Z " fill="#000033" transform="translate(48,75)"/>
<path d="M0 0 C1.32 0 2.64 0 4 0 C4 3.63 4 7.26 4 11 C2.68 11 1.36 11 0 11 C0 7.37 0 3.74 0 0 Z " fill="#4D4D4D" transform="translate(84,116)"/>
<path d="M0 0 C0.99 0.33 1.98 0.66 3 1 C3.33 12.88 3.66 24.76 4 37 C3.01 37.495 3.01 37.495 2 38 C1.34 37.34 0.68 36.68 0 36 C0.66 36 1.32 36 2 36 C1.88188994 31.19432577 1.75765177 26.38886432 1.62768555 21.58349609 C1.58432462 19.94812347 1.54265039 18.31270523 1.50268555 16.67724609 C1.44501088 14.32896159 1.38130871 11.98090696 1.31640625 9.6328125 C1.29969376 8.89942657 1.28298126 8.16604065 1.26576233 7.41043091 C1.21362038 3.57797692 1.21362038 3.57797692 0 0 Z " fill="#514D51" transform="translate(113,36)"/>
<path d="M0 0 C0.33 0 0.66 0 1 0 C2.12862175 5.36095333 2.09688221 10.55306686 2 16 C0.68 16.33 -0.64 16.66 -2 17 C-1.34 11.39 -0.68 5.78 0 0 Z " fill="#4089C1" transform="translate(88,80)"/>
<path d="M0 0 C-0.61875 0.28875 -1.2375 0.5775 -1.875 0.875 C-4.13325765 1.93720042 -4.13325765 1.93720042 -6 4 C-6.16687448 6.58354218 -6.16687448 6.58354218 -6 9 C-4.35 9 -2.7 9 -1 9 C-1 9.33 -1 9.66 -1 10 C-3.875 10.125 -3.875 10.125 -7 10 C-9 8 -9 8 -9.3125 5.0625 C-9 2 -9 2 -7.875 0.0625 C-5.07329973 -1.52513015 -3.03014356 -0.74070176 0 0 Z " fill="#2574AE" transform="translate(106,44)"/>
<path d="M0 0 C4.1897108 2.04875834 8.09805893 4.45073183 12 7 C9.34501768 8.0169313 8.30844625 8.13022151 5.640625 7.00390625 C4.85171875 6.52824219 4.0628125 6.05257813 3.25 5.5625 C2.45078125 5.08941406 1.6515625 4.61632812 0.828125 4.12890625 C0.22484375 3.75636719 -0.3784375 3.38382813 -1 3 C-1 2.34 -1 1.68 -1 1 C-2.98 1 -4.96 1 -7 1 C-7.33 1.66 -7.66 2.32 -8 3 C-8.66 2.34 -9.32 1.68 -10 1 C-6.64036787 -0.67981606 -3.60245492 -0.71824646 0 0 Z " fill="#595758" transform="translate(90,12)"/>
<path d="M0 0 C0.33 0 0.66 0 1 0 C1 8.91 1 17.82 1 27 C1.66 27.33 2.32 27.66 3 28 C1.68 28.33 0.36 28.66 -1 29 C-0.67 19.43 -0.34 9.86 0 0 Z " fill="#545255" transform="translate(98,63)"/>
<path d="M0 0 C6.30214697 0.33169195 10.85216936 3.67323988 16 7 C14.390625 7.7109375 14.390625 7.7109375 12 8 C8.984375 6.6015625 8.984375 6.6015625 5.75 4.625 C4.67234375 3.97789063 3.5946875 3.33078125 2.484375 2.6640625 C1.66453125 2.11492188 0.8446875 1.56578125 0 1 C0 0.67 0 0.34 0 0 Z " fill="#504E4F" transform="translate(103,22)"/>
<path d="M0 0 C0.99 0.495 0.99 0.495 2 1 C5.37822416 1.14375422 7.77390955 1.07536348 11 0 C11 1.32 11 2.64 11 4 C7.37 4.33 3.74 4.66 0 5 C0 3.35 0 1.7 0 0 Z " fill="#010134" transform="translate(97,52)"/>
<path d="M0 0 C1.65 0 3.3 0 5 0 C5 1.98 5 3.96 5 6 C3.35 6 1.7 6 0 6 C0 4.02 0 2.04 0 0 Z " fill="#4D4D4D" transform="translate(137,121)"/>
<path d="M0 0 C1.65 0 3.3 0 5 0 C5 1.98 5 3.96 5 6 C3.35 6 1.7 6 0 6 C0 4.02 0 2.04 0 0 Z " fill="#4D4D4D" transform="translate(130,121)"/>
<path d="M0 0 C5.75 1.875 5.75 1.875 8 3 C8 3.66 8 4.32 8 5 C8.66 5.33 9.32 5.66 10 6 C3.25 5.125 3.25 5.125 1 4 C0.375 1.9375 0.375 1.9375 0 0 Z " fill="#1B74B5" transform="translate(69,63)"/>
<path d="M0 0 C1.32 0 2.64 0 4 0 C4 1.98 4 3.96 4 6 C2.68 6 1.36 6 0 6 C0 4.02 0 2.04 0 0 Z " fill="#4D4D4D" transform="translate(77,121)"/>
<path d="M0 0 C1.32 0 2.64 0 4 0 C4 1.98 4 3.96 4 6 C2.68 6 1.36 6 0 6 C0 4.02 0 2.04 0 0 Z " fill="#4D4D4D" transform="translate(68,121)"/>
<path d="M0 0 C1.65 0 3.3 0 5 0 C3.75453595 3.73639216 2.36595047 4.18756513 -1 6 C-0.67 4.02 -0.34 2.04 0 0 Z " fill="#06093B" transform="translate(57,37)"/>
<path d="M0 0 C1.32 0 2.64 0 4 0 C4 1.65 4 3.3 4 5 C2.68 5 1.36 5 0 5 C0 3.35 0 1.7 0 0 Z " fill="#000000" transform="translate(84,116)"/>
<path d="M0 0 C-1 3 -1 3 -3 4 C-1.35 4.33 0.3 4.66 2 5 C-1.62326739 6.2077558 -2.64146369 5.54311128 -6 4 C-6 3.34 -6 2.68 -6 2 C-2.25 0 -2.25 0 0 0 Z " fill="#777578" transform="translate(68,21)"/>
<path d="M0 0 C1.32 0 2.64 0 4 0 C4 1.32 4 2.64 4 4 C2.35 3.67 0.7 3.34 -1 3 C-0.67 2.01 -0.34 1.02 0 0 Z " fill="#000000" transform="translate(84,110)"/>
</svg>
