 <svg version="1.0" xmlns="http://www.w3.org/2000/svg"
                                        width="80.000000pt" height="80.000000pt"   viewBox="0 0 400.000000 400.000000"
                                        preserveAspectRatio="xMidYMid meet">
                                        <g transform="translate(0.000000,400.000000) scale(0.10000,-0.10000)"
                                            fill="#000000" stroke="none">
                                            <path d="M1891 3620 c-52 -24 -418 -235 -450 -259 -21 -16 -17 -18 105 -54
l126 -38 155 88 c86 48 161 87 167 85 6 -2 172 -97 368 -210 l358 -207 0 -425
0 -425 -110 -63 c-60 -34 -112 -62 -115 -62 -3 0 -5 113 -5 250 l0 250 -100 0
-100 0 0 -421 c0 -397 1 -421 18 -414 27 10 420 234 493 280 52 34 71 53 90
91 l24 49 3 443 c3 503 2 519 -65 585 -31 30 -561 346 -747 445 -66 36 -154
40 -215 12z"/>
                                            <path fill='#1173b9ee' d="M1131 3132 c-72 -39 -71 -34 -71 -537 0 -502 -1 -491 71 -564 33 -34
87 -71 102 -71 4 0 7 78 7 174 0 96 3 177 8 180 6 4 74 -26 367 -163 50 -24
129 -61 178 -83 l87 -41 0 -213 0 -214 26 -17 c31 -20 108 -22 142 -4 18 9 22
19 20 54 l-1 42 -4 -40 c-5 -40 -16 -55 -43 -54 -9 0 -11 2 -3 5 7 3 9 12 6
19 -7 21 28 267 41 284 8 10 12 154 14 453 4 464 2 483 -42 513 -24 18 -79 20
-108 4 -43 -23 -48 -62 -48 -344 0 -254 -1 -266 -18 -261 -14 5 -431 198 -599
278 -23 11 -23 13 -23 217 0 113 5 223 11 244 12 46 58 100 99 117 43 18 37
26 -22 34 -95 11 -162 7 -197 -12z"/>
                                            <path fill='#1173b9ee' d="M2351 2857 c-48 -17 -74 -56 -74 -112 0 -57 26 -95 78 -113 48 -16
106 -1 134 35 23 28 29 109 11 142 -23 44 -95 67 -149 48z"/>
                                            <path d="M2061 1724 c0 -11 3 -14 6 -6 3 7 2 16 -1 19 -3 4 -6 -2 -5 -13z" />
                                            <path d="M1918 1279 c-28 -16 -23 -57 8 -71 31 -14 57 -1 62 31 6 42 -31 63
-70 40z"/>
                                            <path d="M2220 1211 l0 -80 -27 15 c-16 7 -36 14 -46 14 -33 0 -74 -29 -91
-64 -60 -127 57 -262 152 -174 l22 21 0 -21 c0 -18 6 -22 35 -22 l35 0 0 195
0 195 -40 0 -40 0 0 -79z m-18 -138 c38 -34 12 -113 -37 -113 -47 0 -66 70
-30 110 22 24 42 25 67 3z"/>
                                            <path d="M2540 1211 l0 -80 -27 15 c-16 7 -36 14 -46 14 -33 0 -74 -29 -91
-64 -60 -127 57 -262 152 -174 l22 21 0 -21 c0 -18 6 -22 35 -22 l35 0 0 195
0 195 -40 0 -40 0 0 -79z m-18 -138 c38 -34 12 -113 -37 -113 -47 0 -66 70
-30 110 22 24 42 25 67 3z"/>
                                            <path d="M1530 1090 l0 -190 40 0 40 0 0 75 0 75 70 0 70 0 0 -75 0 -75 40 0
40 0 0 190 0 190 -40 0 -40 0 0 -75 0 -75 -70 0 -70 0 0 75 0 75 -40 0 -40 0
0 -190z"/>
                                            <path d="M2754 1150 c-11 -4 -33 -22 -47 -40 -33 -38 -37 -115 -10 -161 38
-64 141 -76 199 -22 l29 26 -35 12 c-28 10 -38 10 -51 -1 -22 -19 -53 -17 -72
4 -33 36 -22 42 74 42 l92 0 -6 36 c-8 50 -32 83 -72 100 -38 16 -70 17 -101
4z m86 -59 c15 -30 14 -31 -40 -31 -54 0 -59 4 -33 32 21 24 60 23 73 -1z"/>
                                            <path d="M3098 1144 c-16 -8 -28 -10 -28 -4 0 5 -18 10 -40 10 l-40 0 0 -125
0 -125 35 0 35 0 0 65 c0 80 21 128 53 123 31 -4 47 -44 47 -120 l0 -68 36 0
36 0 -4 106 c-3 102 -4 107 -31 130 -32 27 -60 30 -99 8z"/>
                                            <path d="M1910 1025 l0 -125 35 0 35 0 0 125 0 125 -35 0 -35 0 0 -125z" />
                                            <path fill='#1173b9ee' d="M1260 869 l0 -181 -35 31 c-77 67 -189 63 -265 -11 -167 -161 -84
-499 123 -501 60 -1 128 29 153 68 23 36 34 31 34 -15 l0 -40 75 0 75 0 0 415
0 415 -80 0 -80 0 0 -181z m-56 -270 c100 -78 54 -249 -66 -249 -104 0 -145
155 -63 237 40 40 88 44 129 12z"/>
                                            <path fill='#1173b9ee' d="M580 625 l0 -405 78 0 79 0 6 232 c4 128 7 311 7 406 l0 172 -85 0
-85 0 0 -405z"/>
                                            <path fill='#1173b9ee' d="M1739 756 c-76 -20 -143 -80 -175 -155 -19 -43 -22 -160 -6 -217 40
-139 196 -211 356 -165 55 16 158 104 140 120 -5 4 -37 18 -71 29 -51 17 -62
18 -67 6 -9 -23 -69 -54 -106 -54 -45 0 -78 23 -96 66 -28 66 -34 64 177 64
l192 0 -7 56 c-14 124 -86 218 -187 248 -62 19 -88 19 -150 2z m129 -112 c19
-13 52 -63 52 -79 0 -3 -50 -5 -111 -5 -110 0 -110 0 -104 23 4 12 20 34 36
50 34 31 91 37 127 11z"/>
                                            <path fill='#1173b9ee' d="M2327 756 c-61 -22 -103 -62 -136 -127 -55 -110 -40 -260 36 -348 82
-96 193 -104 279 -20 l44 43 0 -42 0 -42 75 0 75 0 0 98 c0 55 3 174 7 265 l6
167 -81 0 -82 0 0 -41 0 -41 -41 41 c-37 37 -90 62 -129 61 -8 -1 -32 -7 -53
-14z m172 -162 c63 -52 65 -152 6 -211 -76 -76 -185 -19 -185 97 0 113 103
179 179 114z"/>
                                            <path fill='#1173b9ee' d="M2997 756 c-108 -30 -161 -145 -107 -233 24 -40 48 -56 147 -97 85
-35 102 -59 67 -97 -27 -30 -67 -24 -103 16 -17 19 -33 35 -35 35 -3 0 -31
-11 -61 -25 l-56 -25 25 -33 c14 -19 49 -47 78 -62 160 -87 355 31 309 186
-15 49 -61 84 -160 123 -80 31 -102 57 -82 95 14 25 67 29 97 6 27 -20 39 -19
90 11 44 26 44 27 27 46 -48 53 -153 77 -236 54z"/>
                                        </g>

                                    </svg> 