<?xml version="1.0" encoding="UTF-8"?>
<svg preserveAspectRatio="xMidYMid" version="1.1" viewBox="0 0 256 170" xmlns="http://www.w3.org/2000/svg">
<path d="m250.38 0.0044724c-3.9564 0.12642-2.7052 1.2664-11.254 3.3702-8.6329 2.1245-19.178 1.473-28.474 5.3718-27.751 11.638-33.319 51.416-58.547 65.665-18.858 10.652-37.883 11.501-54.988 16.861-11.241 3.5249-23.538 10.754-33.722 19.531-7.9055 6.815-8.1119 12.807-16.372 21.355-8.8351 9.1426-35.114 0.15449-47.025 14.147 3.8367 3.8794 5.5188 4.966 13.08 3.9595-1.5654 2.967-10.793 5.4674-8.9867 9.832 1.9006 4.5925 24.209 7.7058 44.489-4.5378 9.4444-5.702 16.967-13.921 31.676-15.882 19.034-2.5369 40.961 1.6272 62.996 4.8048-3.2673 9.742-9.827 16.221-15.082 23.979-1.6272 1.7525 3.2683 1.9489 8.8533 0.88977 10.047-2.4842 17.287-4.4845 24.869-8.8977 9.3149-5.4226 10.726-19.325 22.155-22.333 6.3679 9.7875 23.687 12.1 34.434 4.2709-9.4302-2.6693-12.036-22.742-8.8533-31.587 3.0153-8.3724 5.9946-21.765 9.0312-32.833 3.2601-11.886 4.4629-26.867 8.4084-32.922 5.9361-9.1091 12.495-12.237 18.19-17.374 5.6945-5.1366 10.907-10.137 10.736-21.89-0.055095-3.7857-2.0125-5.896-5.6134-5.7809z" fill="#002B64"/>
<path d="m241.91 6.9681c0.94819 3.2321 2.4315 4.7154 8.8446 5.3087-0.93684 8.1306-6.3606 12.578-12.441 16.845-5.3513 3.753-11.214 7.3669-14.981 13.229-3.8595 6.0057-6.3095 26.559-12.294 46.857-5.1725 17.539-12.984 34.88-26.625 42.478-1.4251-3.587 0.18169-10.207-2.653-12.383-1.8339 5.2307-3.9077 10.221-6.3364 14.86-8.0043 15.299-19.855 26.754-39.659 30.251 9.3968-12.715 18.382-25.847 18.576-47.763-6.6132 1.4308-6.4727 17.052-13.268 21.228-4.3563 0.4741-8.7694 0.47126-13.211 0.2044-18.24-1.093-36.951-6.5749-54.014-1.1001-11.618 3.7289-21.12 12.525-30.958 16.792-11.563 5.0149-20.319 7.0774-34.718 5.0149-1.8283-2.4627 10.538-5.6409 9.7985-10.988-5.6352-0.62314-8.907 0.74237-13.806-1.4833 0.54081-0.99645 1.3357-1.8268 2.3364-2.5181 8.978-6.2144 34.48-1.4677 41.305-8.1689 4.2129-4.1334 6.9766-8.4599 9.8382-12.666 2.775-4.0809 5.6437-8.0483 10.014-11.624 1.6139-1.3201 3.3684-2.6246 5.2307-3.8978 7.4479-5.0972 16.662-9.7204 25.729-12.907 12.352-4.3421 24.869-4.6998 38.034-9.7303 8.1334-3.1086 16.978-6.9482 24.187-12.321 1.7119-1.2775 3.3314-2.6388 4.829-4.098 20.586-20.068 24.667-55.468 56.785-58.767 3.8836-0.39887 7.0632-0.2697 9.9574-0.3577 3.3357-0.099361 6.2882-0.48687 9.499-2.2967zm-39.154 113.3c0.38325 6.1349 3.9447 18.307 7.0887 21.265-6.1576 1.4975-16.765-0.97658-19.486-5.3201 1.3982-6.2711 8.6743-12.004 12.397-15.945z" fill="#C49A6C"/>
<path d="m244.22 13.837c-1.238 2.5965-3.6078 5.9442-3.6078 12.554-0.010171 1.1348-0.86163 1.9122-0.87616 0.16274 0.063932-6.46 1.7741-9.2527 3.5904-12.923 0.8442-1.5039 1.3527-0.88343 0.8936 0.20633zm-1.2467-0.97787c-1.4603 2.4774-4.9765 6.9962-5.5577 13.581-0.10752 1.129-1.0258 1.8279-0.88633 0.082821 0.63351-6.4281 3.4436-10.451 5.5766-13.949 0.9677-1.4225 1.4225-0.75992 0.86744 0.28479zm-1.1362-1.2961c-1.6637 2.3451-7.0761 7.7721-8.208 14.286-0.20342 1.1145-1.1769 1.7363-0.89069 0.0087181 1.1711-6.354 5.8367-11.348 8.256-14.651 1.0839-1.3382 1.4806-0.63932 0.84274 0.35599zm-1.0142-1.4457-0.54735 0.58219c-2.4201 2.5946-8.0421 8.9229-9.9157 14.715-0.36034 1.0752-1.4109 1.5547-0.88342-0.11624 2.0516-6.1259 7.7024-12.724 10.562-15.653 1.2627-1.1726 1.5562-0.42428 0.78462 0.47223zm-29.05 13.115c1.2539-5.3863 5.4429-7.8404 12.675-7.2418 1.7451 8.0395-8.0206 11.283-12.675 7.2418z" fill="#002B64"/>
</svg>