<?xml version="1.0" encoding="UTF-8"?>
<svg preserveAspectRatio="xMidYMid" version="1.1" viewBox="0 0 512 349" xmlns="http://www.w3.org/2000/svg">
<title>MySQL</title>
<path d="m152.31 230.3 15.56 50.487c3.4956 11.463 4.9536 19.465 4.3704 24.026 8.5105-22.792 14.456-47.631 17.838-74.513h18.71c-8.0446 43.766-18.656 75.57-31.827 95.411-10.262 15.288-21.504 22.932-33.746 22.932-3.2634 0-7.2877-0.98561-12.063-2.944v-10.55c2.3328 0.34249 5.0703 0.52519 8.2186 0.52519 5.7111 0 10.314-1.5826 13.815-4.7414 4.1934-3.8489 6.2919-8.1751 6.2919-12.969 0-3.2746-1.6369-9.9939-4.8957-20.158l-21.681-67.505h19.407zm-119.09-31.032 28.501 86.957h0.17489l28.676-86.957h23.428c5.1301 43.124 8.1595 82.582 9.09 118.35h-19.752c-0.69473-33.433-2.6205-64.871-5.7681-94.32h-0.174l-30.078 94.32h-15.041l-29.896-94.32h-0.17612c-2.2183 28.282-3.6138 59.72-4.1958 94.32h-18.012c1.164-42.079 4.077-81.525 8.739-118.35h24.485z" fill="#00758F"/>
<path d="m352.5 197.51c30.657 0 45.986 19.587 45.986 58.739 0 21.276-4.6102 37.347-13.822 48.205-1.6607 1.9837-3.495 3.6974-5.4268 5.2858l21.695 10.727-0.02133-0.001222-7.703 13.302-28.252-16.485c-4.6834 1.3868-9.836 2.08-15.452 2.08-15.053 0-26.296-4.3873-33.731-13.15-8.1601-9.6941-12.237-24.955-12.237-45.758 0-21.156 4.6011-37.166 13.815-48.037 8.3916-9.9437 20.111-14.908 35.148-14.908zm-93.88 0.17292c10.957 0 20.921 2.9321 29.895 8.7751l-4.5584 10.156c-7.6786-3.2642-15.251-4.9027-22.716-4.9027-6.0576 0-10.726 1.4582-13.98 4.3918-3.2726 2.9082-5.2958 6.6509-5.2958 11.212 0 7.0089 4.9942 13.088 14.215 18.225 2.4805 1.3487 5.7114 3.1472 9.0313 5.0113l0.68792 0.38647c0.11479 0.064525 0.22964 0.1291 0.34451 0.1937l0.6893 0.38785c0.11486 0.064661 0.22969 0.12932 0.34446 0.19397l0.68774 0.38754c6.9807 3.9354 13.548 7.6914 13.548 7.6914 9.2204 6.5448 13.815 13.523 13.815 25.016 0 10.037-3.6778 18.276-11.009 24.723-7.3374 6.4184-17.195 9.6361-29.538 9.6361-11.545 0-22.734-3.7035-33.573-11.05l5.0703-10.166c9.3271 4.6748 17.767 7.0092 25.346 7.0092 7.1088 0 12.673-1.5863 16.698-4.7203 4.016-3.1566 6.4232-7.5592 6.4232-13.143 0-7.027-4.8875-13.033-13.855-18.072-2.3284-1.2812-5.3108-2.9543-8.395-4.6976l-0.68684-0.38842c-1.2615-0.71374-2.5331-1.4352-3.7774-2.1425l-0.67584-0.3843c-6.0542-3.4438-11.289-6.453-11.289-6.453-8.9645-6.5568-13.459-13.592-13.459-25.184 0-9.5869 3.3518-17.336 10.046-23.231 6.7097-5.9075 15.366-8.8613 25.967-8.8613zm175.9 1.5832v103.79h37.238v14.558h-56.124v-118.35h18.886zm57.931 103.83v2.4594h-4.0953v12.041h-3.1293v-12.041h-4.2537v-2.4594h11.478zm7.5598 0 3.9307 9.8839 3.6108-9.8839h4.4365v14.5h-2.9496v-11.036l-4.1105 11.036h-2.1268l-4.1166-11.036h-0.15848v11.036h-2.7911v-14.5h4.275zm-149.43-91.035c-18.066 0-27.104 14.91-27.104 44.71 0 17.07 2.395 29.449 7.1759 37.163 4.4274 7.1406 11.363 10.703 20.805 10.703 18.066 0 27.104-15.025 27.104-45.064 0-16.831-2.395-29.103-7.1698-36.821-4.4335-7.1247-11.366-10.691-20.812-10.691z" fill="#F29111"/>
<path d="m303.22 7.3332c5.9936-14.726 26.948-3.5746 35.081 1.5704 1.9928 1.2862 4.2781 4.0054 6.5634 5.0105 3.5651 0.14054 7.1271 0.41856 10.698 0.56827 6.6975 1.5734 12.971 2.8597 18.249 5.866 24.529 14.445 40.496 29.165 55.192 53.478 3.1385 5.1511 4.7078 10.724 7.2734 16.296 3.559 8.3071 7.5598 17.027 11.692 24.882 1.8496 3.7237 3.2817 7.865 5.8504 11.01 1.0025 1.4381 3.8515 1.8615 5.5548 2.721 4.7077 2.4368 10.412 4.2867 14.839 7.1473 8.2698 5.1556 16.265 11.3 23.533 17.589 2.7088 2.4286 4.5554 5.8657 7.1362 8.4339v1.296c-2.2914 0.703-4.5737 1.4228-6.859 1.999-4.9911 1.2832-9.4124 0.99294-14.254 2.2761-2.9922 0.86737-6.7066 2.0131-9.8451 2.3033 0.14017 0.14084 0.28947 0.29237 0.28947 0.29237 1.8465 5.2748 11.835 9.5652 16.402 12.719 5.5487 4.0041 10.689 8.8613 14.827 14.437 1.4291 1.4237 2.8582 2.7188 4.2811 4.1377 0.99335 1.4381 1.2736 3.2975 2.2792 4.5807v0.43292c-1.1139-0.3931-1.9146-1.1425-2.6743-1.9269l-0.45311-0.47233c-0.45255-0.4714-0.90995-0.93233-1.431-1.3134-3.1476-2.1506-6.2739-4.7224-9.4216-6.7214-5.4116-3.4334-11.689-5.4266-17.246-8.8732-3.1415-2.0015-6.1368-4.2809-9.1321-6.5699-2.7149-2.0073-5.7041-5.862-7.4105-8.7217-1.0055-1.5798-1.1427-3.4371-2.2914-4.5791 0.20555-1.9094 1.9548-2.4771 3.719-2.9433l0.40669-0.10633c0.60834-0.15848 1.2044-0.31624 1.7247-0.52469 7.4135-3.1484 16.253-4.2904 27.667-4.0041-0.4297-2.8664-7.5629-6.437-9.8391-8.1531-4.5706-3.2941-9.4094-6.7312-14.257-9.729-2.5687-1.5707-6.996-2.7164-9.842-3.9993-3.8515-1.574-12.411-3.1472-14.544-6.1449-3.6251-4.7259-6.2291-10.363-8.7574-16.058l-0.68835-1.5539c-0.2293-0.518-0.45868-1.0358-0.68885-1.5529-2.9892-6.8568-6.7005-14.006-9.6958-21.027-1.5662-3.4249-2.2853-6.4312-4.0008-9.7155-10.406-20.158-25.809-37.035-44.484-48.905-6.1368-3.8618-12.981-7.4363-20.534-9.8652-4.2811-1.2923-9.4185-0.57743-13.98-1.5704h-3.0013c-2.5626-0.72103-4.7017-3.4371-6.7005-4.87-4.4152-2.9971-8.8365-5.0105-14.117-7.1492-1.8496-0.85851-7.1332-2.8566-8.9767-1.2832-1.1427 0.28719-1.7216 0.718-2.0019 1.8637-1.1366 1.7109-0.13715 4.2864 0.5698 5.8629 2.1421 4.5706 5.1343 7.2866 7.8493 11.148 2.4163 3.4249 5.4177 7.2866 7.1302 11.011 3.6961 8.0046 5.4177 16.874 8.8426 24.878 1.2706 3.0094 3.2786 6.4342 5.1282 9.1503 1.5662 2.1539 4.4152 3.7121 5.2775 6.4404 1.7186 2.8597-2.5717 12.297-3.5651 15.294-3.7144 11.727-2.9953 28.027 1.2828 38.193 0.076245 0.17736 0.1522 0.35616 0.22814 0.53602l0.22806 0.54238c1.5619 3.7228 3.2337 7.7318 7.387 8.7734 0.28642-0.28413 0-0.13475 0.56676-0.28413 1.0056-7.8684 1.2889-15.445 4.0008-21.601 1.5662-3.8489 4.6956-6.5699 6.8407-9.7122 1.4291 0.85576 1.4291 3.4371 2.2823 5.145 1.8557 4.43 3.8485 9.2872 6.1368 13.73 4.6955 9.1503 9.9792 18.021 15.967 26.025 2.005 2.8581 4.8509 6.0053 7.4166 8.5808 1.1427 0.99654 2.4224 1.5728 3.2817 2.8559h0.28033v0.432c-4.2781-1.5777-6.99-6.0032-10.403-8.5869-6.4232-4.8572-14.117-12.151-18.544-19.151-1.8526-4.0173-3.8546-7.8684-5.8504-11.866v-0.289c-0.85321 1.1424-0.56679 2.2761-0.99335 4.0041-1.8526 7.1452-0.42659 15.296-6.8437 17.866-7.2734 3.01-12.7-4.8572-14.976-8.4314-7.2764-11.866-9.2692-31.884-4.1379-48.043 1.1396-3.5776 1.295-7.8671 3.2847-10.724-0.42964-2.5816-2.4194-3.2874-3.5712-4.87-1.9958-2.7038-3.7052-5.8538-5.2684-8.857-3.0014-5.866-5.1374-12.875-7.4166-19.165-1.0025-2.5694-1.2889-5.148-2.2884-7.5799-1.7033-3.7121-4.8449-7.4363-7.2673-10.721-3.2817-4.7203-12.837-13.868-8.9858-23.168zm46.773 28.015c0.38088 0.3819 0.84099 0.71594 1.3168 1.0444l0.57442 0.39424c0.76508 0.52933 1.5053 1.0878 1.9603 1.8487 0.71908 1.0052 0.85318 1.9981 1.7155 3.0063 0 3.4371-0.99642 5.7224-3.0075 7.1461 0 0-0.13712 0.14977-0.27725 0.29027-1.1396-2.2914-2.139-4.5705-3.2878-6.8589-1.4138-1.9981-3.4128-3.5837-4.5645-5.866h-0.27728v-0.28716c1.7216-0.4247 3.428-0.71806 5.8473-0.71806z" fill="#00758F"/>
</svg>
