<svg width="81" height="81" viewBox="0 0 81 81" fill="none" xmlns="http://www.w3.org/2000/svg">
<path d="M13.5078 10.5732H16.375V13.154H13.5078V10.5732ZM65.5098 10.5732H68.3775V13.154H65.5098V10.5732ZM13.5078 68.3112H16.375V70.892H13.5078V68.3112ZM65.5098 68.3112H68.3775V70.892H65.5098V68.3112Z" fill="#056AB2"/>
<path d="M80.9453 34.9338V21.0774H67.0889V26.8569H62.3953L57.858 29.4771L42.2381 20.4605V14.5879H47.8745V0.731445H34.0177V14.5879H39.6572V20.4583L24.0325 29.4771L19.4952 26.8569H14.8017V21.0774H0.945312V34.9338H14.8017V29.4379H18.8033L22.7417 31.7114L22.742 49.7522L18.8033 52.0263H14.8017V46.5299H0.945312V60.3868H14.8017V54.6068H19.4953L24.0312 51.9877L39.6573 61.0082V66.8752H34.0178V80.7314H47.8747V66.875H42.2383V61.0057L57.8594 51.9875L62.3955 54.6066H67.0891V60.3866H80.9453V46.5299H67.0889V52.0263H63.0873L59.1497 49.7529L59.1486 31.7116L63.0873 29.4379H67.0889V34.9338H80.9453ZM36.5981 3.31223H45.2933V12.0071H36.5981V3.31223ZM12.2213 32.3535H3.52609V23.6583H12.2213V32.3535ZM12.2213 57.8058H3.52609V49.111H12.2213V57.8058ZM45.2933 78.151H36.5981V69.4558H45.2933V78.151ZM69.6697 49.111H78.3648V57.8058H69.6697V49.111ZM40.9453 39.2419L26.613 30.9666L40.9456 22.6938L55.278 30.9669L40.9453 39.2419ZM25.3225 33.201L39.6572 41.4777V58.0288L25.3228 49.7538L25.3225 33.201ZM42.2381 58.0264V41.475L56.5678 33.2018L56.5689 49.7527L42.2381 58.0264ZM69.6697 23.6583H78.3648V32.3535H69.6697V23.6583Z" fill="#056AB2"/>
</svg>
