<svg width="81" height="81" viewBox="0 0 81 81" fill="none" xmlns="http://www.w3.org/2000/svg">
<path d="M79.7665 46.9506C80.1021 46.7957 80.3864 46.5478 80.5856 46.2364C80.7848 45.925 80.8906 45.563 80.8906 45.1933V35.4046C80.8906 35.0348 80.7846 34.6727 80.5852 34.3612C80.3858 34.0497 80.1014 33.8019 79.7655 33.647L72.819 30.4439L70.4399 24.6926L73.0817 17.5154C73.2094 17.1685 73.2351 16.7923 73.1558 16.4312C73.0764 16.0702 72.8954 15.7395 72.634 15.4781L65.7123 8.55604C65.4509 8.29467 65.1202 8.11362 64.7592 8.03427C64.3982 7.95493 64.022 7.98061 63.6751 8.10829L56.4986 10.7503L50.7477 8.37104L47.5448 1.42401C47.3899 1.08813 47.1421 0.803652 46.8307 0.604244C46.5192 0.404836 46.1571 0.298849 45.7873 0.298828H35.9993C35.6296 0.298825 35.2677 0.404698 34.9563 0.603923C34.6449 0.803149 34.3971 1.08739 34.2421 1.42304L31.0349 8.37072L25.2834 10.7501L18.1068 8.10813C17.7599 7.98043 17.3837 7.95473 17.0227 8.03408C16.6617 8.11343 16.331 8.2945 16.0696 8.55588L9.14806 15.4779C8.88658 15.7394 8.70549 16.0704 8.6262 16.4316C8.54691 16.7928 8.57275 17.1692 8.70067 17.5162L11.3462 24.6922L8.9634 30.4438L2.02072 33.647C1.68499 33.8019 1.40065 34.0498 1.20134 34.3612C1.00204 34.6727 0.896118 35.0347 0.896109 35.4045V45.1932C0.896108 45.5628 1.00194 45.9247 1.20109 46.2361C1.40024 46.5475 1.68438 46.7953 2.01992 46.9503L8.96356 50.1581L11.3463 55.9061L9.85496 59.9576L3.24001 66.5717C0.10696 69.7111 0.107605 74.8147 3.2413 77.9488C4.7567 79.4643 6.77771 80.2988 8.93243 80.2988C11.0871 80.2988 13.1082 79.4643 14.6236 77.9488L21.2309 71.341L25.2831 69.8479L31.0349 72.2311L34.2423 79.1749C34.3973 79.5105 34.6451 79.7947 34.9565 79.9938C35.2678 80.193 35.6297 80.2988 35.9993 80.2988H45.7873C46.157 80.2988 46.519 80.1929 46.8305 79.9936C47.1419 79.7943 47.3897 79.5099 47.5446 79.1741L50.7477 72.2308L54.6197 70.6258C56.2393 76.2064 61.3937 80.2988 67.4891 80.2988C74.8785 80.2988 80.8903 74.2866 80.8903 66.8967C80.8903 60.801 76.7984 55.6464 71.2184 54.0265L72.819 50.1581L79.7662 46.9505L79.7665 46.9506ZM11.8868 75.2117C11.1026 75.996 10.0535 76.428 8.93275 76.428C7.81201 76.428 6.76287 75.996 5.97872 75.2117C4.35269 73.5855 4.35333 70.9364 5.97872 69.3079L29.4087 45.8808C29.6617 45.6278 29.8397 45.3097 29.9228 44.9617C30.0059 44.6137 29.9909 44.2494 29.8795 43.9094C29.4976 42.7448 29.3032 41.5268 29.3035 40.3012C29.3035 33.9112 34.5018 28.7126 40.8913 28.7126C40.9598 28.7126 41.0284 28.7133 41.0969 28.7144L36.7246 33.0899C35.9691 33.8459 35.9693 35.0709 36.7249 35.8267L45.3654 44.468C46.121 45.2237 47.3461 45.224 48.102 44.4683L52.4772 40.0957C52.4784 40.1641 52.479 40.2326 52.479 40.3012C52.479 46.6911 47.2807 51.8897 40.8913 51.8897C39.6656 51.8901 38.4477 51.6956 37.2831 51.3137C36.9431 51.2024 36.579 51.1875 36.2311 51.2705C35.8832 51.3536 35.5651 51.5315 35.3121 51.7844L11.8866 75.2115L11.8868 75.2117ZM22.4642 40.3012C22.4642 30.1397 30.7306 21.8728 40.8913 21.8728C51.052 21.8728 59.3183 30.1397 59.3183 40.3012C59.3183 50.4626 51.052 58.7295 40.8913 58.7295C38.8333 58.7295 36.7891 58.3816 34.8571 57.7142L37.246 55.3251C38.4394 55.6148 39.6632 55.761 40.8913 55.7607C49.4151 55.7607 56.3498 48.8255 56.3498 40.3012C56.3498 38.6489 56.0927 37.0289 55.5854 35.4859C55.4823 35.1719 55.3004 34.8895 55.0571 34.6657C54.8138 34.4419 54.5172 34.2841 54.1957 34.2075C53.8742 34.1308 53.5383 34.1378 53.2203 34.2278C52.9022 34.3177 52.6125 34.4877 52.3787 34.7214L46.7342 40.3626L40.8298 34.4577L46.4706 28.8128C46.7044 28.5788 46.8743 28.2889 46.9642 27.9706C47.054 27.6524 47.0608 27.3164 46.984 26.9947C46.9071 26.6731 46.7491 26.3765 46.525 26.1332C46.301 25.89 46.0183 25.7083 45.7041 25.6053C44.1572 25.0985 42.538 24.8416 40.8909 24.8416C32.3671 24.8416 25.4325 31.7767 25.4325 40.3012C25.4325 41.5331 25.5787 42.7544 25.8681 43.9465L23.4792 46.3351C22.8081 44.3941 22.4649 42.3549 22.4639 40.3012H22.4642ZM48.5668 68.9446C48.1172 69.1309 47.7543 69.4798 47.5504 69.9217L44.5491 76.4278H37.2374L34.2318 69.9209C34.0277 69.4793 33.6649 69.1307 33.2156 68.9445L26.4363 66.1354L31.8745 60.6968C34.7155 61.9501 37.7862 62.5984 40.8913 62.6004C53.1864 62.6004 63.189 52.5968 63.189 40.301C63.189 28.0052 53.1862 18.0017 40.8913 18.0017C28.5963 18.0017 18.5935 28.0052 18.5935 40.301C18.5935 43.4107 19.2494 46.4934 20.4973 49.3168L15.0592 54.7541L12.2497 47.9768C12.0635 47.5275 11.7149 47.1648 11.2734 46.9609L4.76702 43.9549V36.6429L11.2726 33.6414C11.7146 33.4375 12.0635 33.0745 12.2498 32.6248L15.2122 25.4742C15.3987 25.0243 15.4087 24.5207 15.2401 24.0638L12.7611 17.3392L17.9314 12.1685L24.6559 14.644C25.1122 14.8121 25.615 14.8022 26.0644 14.6163L33.2144 11.6582C33.6644 11.472 34.0277 11.123 34.2318 10.6809L37.2376 4.16985H44.5486L47.5501 10.6801C47.7542 11.1227 48.1176 11.4719 48.5679 11.6582L55.718 14.6163C56.1673 14.8021 56.6701 14.812 57.1263 14.644L63.8508 12.1685L69.0216 17.3397L66.5463 24.0646C66.3783 24.5209 66.3882 25.0237 66.574 25.4731L69.5319 32.6238C69.7182 33.0741 70.0674 33.4375 70.5099 33.6416L77.0197 36.6432V43.9548L70.5091 46.9608C70.0671 47.165 69.7182 47.5282 69.5319 47.978L67.247 53.5005C60.0505 53.6293 54.2234 59.4564 54.0942 66.6533L48.5665 68.9446H48.5668ZM77.02 66.8967C77.02 72.1521 72.7446 76.4278 67.4896 76.4278C62.2346 76.4278 57.9592 72.1521 57.9592 66.8967C57.9592 61.6413 62.2346 57.3656 67.4896 57.3656C72.7446 57.3656 77.02 61.6413 77.02 66.8967ZM65.7118 67.653L71.5626 62.0389C72.334 61.299 73.5589 61.3242 74.2991 62.0955C75.039 62.8668 75.0137 64.0921 74.2425 64.8322L67.0237 71.7587C66.6636 72.1049 66.1834 72.2981 65.6839 72.2976C65.4297 72.2979 65.1779 72.248 64.943 72.1507C64.7081 72.0534 64.4948 71.9107 64.3153 71.7306L60.7082 68.1233C59.9525 67.3674 59.9525 66.142 60.7082 65.386C61.4641 64.6301 62.6894 64.6301 63.4453 65.386L65.712 67.6528L65.7118 67.653Z" fill="#056AB2"/>
</svg>
