<svg width="80" height="79" viewBox="0 0 80 79" fill="none" xmlns="http://www.w3.org/2000/svg">
<path fill-rule="evenodd" clip-rule="evenodd" d="M77.5742 25.7441C77.0472 30.5284 76.9836 36.0847 75.592 40.6618C73.5125 47.5018 69.7412 53.781 69.237 60.6977C68.855 65.9374 67.9031 69.8827 68.0723 75.3578C68.0933 76.0398 67.5588 76.5841 66.8769 76.5841H64.3532C65.2309 74.1224 63.4257 71.5942 60.8692 71.5942H54.5754V66.8152C54.5754 66.6563 54.5439 66.4988 54.4827 66.352C54.4216 66.2052 54.3319 66.0719 54.219 65.9596C54.106 65.8474 53.972 65.7585 53.8245 65.6981C53.677 65.6376 53.519 65.6067 53.3595 65.6073C52.6954 65.6073 52.1436 66.1481 52.1436 66.8152V72.8022C52.1436 73.4694 52.6954 74.0113 53.3595 74.0113H60.8692C61.5743 74.0113 62.1565 74.5878 62.1565 75.2967C62.1565 76.0066 61.5741 76.5842 60.8692 76.5842H49.7529C49.099 76.5842 48.5677 76.0506 48.5677 75.3967V60.6705C48.5677 57.8156 50.5192 55.4117 53.329 54.822L60.4707 53.3237C63.1068 52.7706 65.7531 50.1673 66.9995 47.8826L72.4146 37.9976C72.4861 37.8622 72.527 37.7145 72.5475 37.5628L74.0085 25.3707C74.1414 24.2819 75.1937 23.7838 76.1133 23.7838C77.0698 23.7834 77.6578 24.8829 77.5742 25.7441ZM58.4169 41.7719C55.8627 41.7719 53.7785 43.8509 53.7785 46.4043C53.7785 48.9599 55.8627 51.0368 58.4169 51.0368C60.9816 51.0368 63.0658 48.9599 63.0658 46.4043C63.0658 43.8509 60.9816 41.7719 58.4169 41.7719ZM78.8922 22.6374C78.1567 21.8174 77.1655 21.3663 76.1131 21.3663C73.7529 21.3663 71.8526 22.9307 71.5972 25.0851L70.1668 37.0449L65.4567 45.6648C65.0787 42.1233 62.0749 39.356 58.4171 39.356C54.5244 39.356 51.3468 42.5165 51.3468 46.4043C51.3468 48.7695 52.5218 50.8645 54.32 52.1439L52.8284 52.4576C48.8948 53.2827 46.1464 56.6613 46.1464 60.6702V75.3963C46.1464 77.3825 47.7607 79 49.7529 79H66.8769C68.9253 79 70.5568 77.3194 70.4937 75.2822C70.3324 70.0753 71.2954 65.962 71.6584 60.8677C71.9445 56.7793 73.518 52.8915 75.1833 48.7744C78.4269 40.7285 78.9453 38.7804 79.6483 29.7672C79.7504 28.4328 79.8527 27.175 79.9753 26.0057C80.1081 24.7989 79.6994 23.5399 78.8922 22.6374ZM31.4436 75.3965C31.4436 76.0504 30.9021 76.5841 30.2482 76.5841H19.1421C18.4268 76.5841 17.8446 76.0066 17.8446 75.2966C17.8446 74.5876 18.427 74.0111 19.1421 74.0111H26.6416C26.8011 74.0115 26.9592 73.9806 27.1067 73.92C27.2542 73.8594 27.3882 73.7704 27.5012 73.6581C27.6141 73.5457 27.7037 73.4123 27.7649 73.2654C27.826 73.1185 27.8575 72.9611 27.8575 72.802V66.815C27.8575 66.6561 27.826 66.4987 27.7648 66.3518C27.7036 66.205 27.614 66.0717 27.5011 65.9595C27.3881 65.8472 27.254 65.7584 27.1066 65.6979C26.9591 65.6374 26.8011 65.6066 26.6416 65.6071C25.9775 65.6071 25.4359 66.1479 25.4359 66.815V71.5941H19.1421C16.5157 71.5941 14.7577 74.2261 15.6582 76.5839H13.1242C12.4436 76.5839 11.9182 76.031 11.939 75.3576C12.1056 69.966 11.1466 65.9142 10.7743 60.6975C10.2841 53.8299 6.4708 47.4312 4.40906 40.6616C2.99686 36.0075 2.97166 30.5288 2.43714 25.7439C2.3369 24.8599 2.9493 23.7832 3.89822 23.7832C4.81777 23.7832 5.87015 24.2813 6.00297 25.3701L7.45383 37.5622C7.47429 37.7139 7.52526 37.8616 7.59689 37.9971L13.0018 47.8821C14.2585 50.1667 16.9047 52.7701 19.5408 53.3231L26.6825 54.8214C29.4819 55.4112 31.4438 57.815 31.4438 60.67L31.4436 75.3965ZM21.584 41.7719C19.0195 41.7719 16.9351 43.8509 16.9351 46.4043C16.9351 48.9599 19.0194 51.0368 21.584 51.0368C24.1484 51.0368 26.2329 48.9599 26.2329 46.4043C26.2329 43.8509 24.1486 41.7719 21.584 41.7719ZM27.1729 52.4576L25.6811 52.1439C27.4793 50.8645 28.6543 48.7695 28.6543 46.4043C28.6543 42.5165 25.4869 39.356 21.584 39.356C17.9365 39.356 14.9224 42.1233 14.5546 45.6648L9.83427 37.0449L8.40388 25.0851C8.14847 22.9307 6.24797 21.3663 3.89803 21.3663C1.47571 21.3663 -0.232457 23.6976 0.0258055 26.0057C0.584205 30.9995 0.577952 36.379 2.08963 41.3633C2.87635 43.9618 3.86734 46.4093 4.82781 48.7744C6.49316 52.8913 8.05638 56.7791 8.35272 60.8677C8.72221 65.9626 9.67701 70.1284 9.51746 75.2822C9.45418 77.3241 11.0718 79 13.124 79H30.248C32.2404 79 33.8648 77.3825 33.8648 75.3963V60.6702C33.8652 56.6611 31.1167 53.2827 27.1729 52.4576ZM22.7182 8.84721C22.2483 8.37554 22.2483 7.60958 22.7182 7.1381C23.1881 6.66643 23.9546 6.66757 24.4347 7.1381L28.2967 10.9923C29.0525 11.7486 28.518 13.0548 27.4385 13.0548C27.1169 13.0548 26.8083 12.9277 26.5804 12.7014L22.7182 8.84721ZM15.5558 24.3699C15.5558 24.529 15.5872 24.6865 15.6483 24.8334C15.7094 24.9803 15.799 25.1138 15.912 25.2261C16.0249 25.3385 16.159 25.4274 16.3066 25.488C16.4541 25.5486 16.6122 25.5795 16.7717 25.579H22.2379C22.902 25.579 23.4538 25.0382 23.4538 24.3699C23.4538 23.7027 22.902 23.161 22.2379 23.161H16.7717C16.6122 23.1606 16.4542 23.1916 16.3067 23.2521C16.1592 23.3127 16.0252 23.4017 15.9122 23.514C15.7993 23.6263 15.7097 23.7597 15.6485 23.9066C15.5873 24.0534 15.5559 24.2109 15.5558 24.3699ZM57.7733 23.161C57.6127 23.159 57.4534 23.1888 57.3045 23.2487C57.1556 23.3085 57.0201 23.3972 56.9059 23.5097C56.7916 23.6222 56.7009 23.7561 56.639 23.9038C56.5771 24.0515 56.5452 24.21 56.5452 24.37C56.5452 24.5301 56.5771 24.6885 56.639 24.8362C56.7009 24.9839 56.7916 25.1178 56.9059 25.2303C57.0201 25.3428 57.1556 25.4315 57.3045 25.4914C57.4534 25.5512 57.6127 25.581 57.7733 25.579H63.2394C63.9035 25.579 64.4451 25.0382 64.4451 24.3699C64.4451 23.7027 63.9035 23.161 63.2394 23.161H57.7733ZM38.7898 6.65944V1.20911C38.7898 1.05007 38.8212 0.8926 38.8824 0.745707C38.9435 0.598814 39.0331 0.465388 39.1461 0.353072C39.259 0.240757 39.3931 0.151758 39.5406 0.0911727C39.6881 0.0305873 39.8461 -0.000393753 40.0057 3.77763e-06C40.6698 3.77763e-06 41.2113 0.541939 41.2113 1.20911V6.65944C41.2113 7.32662 40.6698 7.86855 40.0057 7.86855C39.8461 7.86895 39.6881 7.83797 39.5406 7.77738C39.3931 7.7168 39.259 7.6278 39.1461 7.51548C39.0331 7.40317 38.9435 7.26974 38.8824 7.12285C38.8212 6.97596 38.7898 6.81848 38.7898 6.65944ZM51.7042 12.7016C51.2343 12.2299 51.2343 11.464 51.7042 10.9925L55.5766 7.13829C55.6884 7.02618 55.8214 6.93722 55.9678 6.87651C56.1142 6.8158 56.2712 6.78455 56.4298 6.78455C56.5883 6.78455 56.7453 6.8158 56.8918 6.87651C57.0382 6.93722 57.1711 7.02618 57.2829 7.13829C57.3969 7.2497 57.4875 7.38267 57.5493 7.5294C57.6111 7.67613 57.643 7.83369 57.643 7.99284C57.643 8.152 57.6111 8.30956 57.5493 8.45629C57.4875 8.60302 57.3969 8.73599 57.2829 8.8474L53.4209 12.7016C52.9498 13.1723 52.1965 13.1738 51.7042 12.7016ZM41.528 46.8779C41.528 47.7162 40.8434 48.3975 40.0055 48.3975C39.8053 48.3979 39.607 48.3589 39.422 48.2826C39.237 48.2063 39.0689 48.0944 38.9275 47.9532C38.786 47.812 38.674 47.6443 38.5977 47.4597C38.5215 47.2752 38.4825 47.0775 38.4832 46.8779V45.8501H41.528V46.8779ZM30.6262 24.2987C30.6262 28.841 34.4954 31.5443 36.1639 38.2814H43.837C45.526 31.546 49.3747 28.8114 49.3747 24.2987C49.3747 19.1447 45.1755 14.9515 40.0055 14.9515C34.8357 14.9515 30.6262 19.1447 30.6262 24.2987ZM36.4194 43.4332V40.6975H43.5918V43.4332H36.4194ZM49.2214 31.8665C50.5497 29.5239 51.8063 27.3136 51.8063 24.2987C51.8063 17.8127 46.5138 12.5344 40.0055 12.5344C33.4972 12.5344 28.2046 17.8127 28.2046 24.2987C28.2046 27.3136 29.4613 29.5239 30.7895 31.8665C31.9543 33.9321 33.2825 36.2717 33.9876 39.6229V43.9008C33.9876 44.9754 34.8662 45.8503 35.9493 45.8503H36.0514V46.8781C36.0514 49.0487 37.8291 50.8148 40.0055 50.8148C42.1819 50.8148 43.9493 49.0487 43.9493 46.8781V45.8503H44.0617C45.1345 45.8503 46.0131 44.9754 46.0131 43.9008V39.6229C46.7284 36.2717 48.0465 33.9321 49.2214 31.8665Z" fill="#056AB2"/>
</svg>
