<svg width="81" height="81" viewBox="0 0 81 81" fill="none" xmlns="https://www.w3.org/2000/svg">
<path d="M2.19578 80.2988H51.4644C51.7959 80.2988 52.1139 80.1671 52.3483 79.9327C52.5827 79.6982 52.7144 79.3803 52.7144 79.0487V67.0934C52.7336 65.2774 52.1716 63.5028 51.1105 62.029C50.0495 60.5551 48.545 59.4592 46.8169 58.9014L34.192 54.6926V50.7056C34.192 50.6625 34.1898 50.6197 34.1856 50.5776C35.7835 49.3182 37.0356 47.6736 37.8243 45.798C38.7375 45.7956 39.6311 45.5333 40.4009 45.042C41.1706 44.5506 41.7847 43.8503 42.1713 43.023C42.558 42.1956 42.7013 41.2753 42.5845 40.3695C42.4677 39.4638 42.0957 38.6099 41.5118 37.9077C41.698 37.0464 42.0102 35.4567 42.1451 34.5421C42.1862 34.2617 42.227 33.9988 42.2655 33.75C42.6282 31.413 42.8468 30.0026 41.4415 27.3563C39.9146 24.4834 37.5807 22.12 34.7272 20.5574C31.8738 18.9948 28.6256 18.3013 25.3829 18.5622C22.1403 18.8232 19.0447 20.0272 16.4779 22.026C13.911 24.0248 11.9849 26.7309 10.937 29.811C10.9147 29.8764 10.898 29.9435 10.8868 30.0117C10.4701 32.555 10.8243 35.2101 11.9373 37.9101C11.3546 38.6118 10.9832 39.4648 10.8666 40.3695C10.75 41.2742 10.8928 42.1935 11.2785 43.0201C11.6642 43.8468 12.2769 44.5468 13.0451 45.0385C13.8133 45.5303 14.7055 45.7936 15.6176 45.7978C16.4289 47.7174 17.7219 49.3951 19.3715 50.6684C19.4027 50.6928 19.4357 50.7153 19.4676 50.7392V54.6927L6.84263 58.9014C5.11462 59.4594 3.61028 60.5553 2.54938 62.0291C1.48847 63.503 0.926578 65.2775 0.945789 67.0934V79.0487C0.945789 79.3803 1.07748 79.6982 1.3119 79.9327C1.54632 80.1671 1.86426 80.2988 2.19578 80.2988ZM29.9016 63.6518L29.3987 66.5254H24.2611L23.8117 63.9553C23.7889 63.8251 23.7454 63.6993 23.683 63.5827L26.8302 61.3482L29.9256 63.5466C29.9161 63.5814 29.9081 63.6164 29.9016 63.6518ZM24.6019 69.0256H29.0598L30.5933 77.7986H23.0668L24.6019 69.0256ZM50.2152 67.0934V77.7986H44.2369V72.3284C44.2369 71.9968 44.1052 71.6789 43.8708 71.4444C43.6364 71.21 43.3185 71.0783 42.9869 71.0783C42.6554 71.0783 42.3375 71.21 42.1031 71.4444C41.8686 71.6789 41.737 71.9968 41.737 72.3284V77.7986H33.1311L31.5481 68.7474L32.1781 65.1457L35.7562 67.6869C35.9432 67.8197 36.1632 67.8985 36.392 67.9146C36.6208 67.9308 36.8496 67.8837 37.0534 67.7784C37.2572 67.6732 37.4281 67.5139 37.5475 67.318C37.6668 67.1221 37.7299 66.8971 37.7299 66.6677V58.5071L46.0268 61.273C47.2543 61.6696 48.3228 62.4484 49.0762 63.4955C49.8296 64.5427 50.2284 65.8034 50.2144 67.0934H50.2152ZM35.2309 57.6736V64.2466L28.9902 59.8143L33.035 56.9415L35.2309 57.6736ZM38.5996 43.1566C38.8498 41.7108 38.8337 40.2313 38.552 38.7912C39.0062 38.9447 39.4015 39.2356 39.6831 39.6236C39.9648 40.0116 40.1189 40.4776 40.1241 40.957C40.1294 41.4365 39.9855 41.9057 39.7124 42.2998C39.4392 42.6939 39.0504 42.9933 38.5996 43.1566ZM13.3377 30.5176C14.2449 27.9146 15.8914 25.6326 18.0756 23.9512C20.2598 22.2697 22.8868 21.2617 25.6351 21.0507C28.3833 20.8397 31.1335 21.4347 33.5487 22.763C35.964 24.0913 37.9395 26.0952 39.2334 28.5292C40.249 30.4409 40.1345 31.1783 39.7951 33.3668C39.7556 33.6215 39.7138 33.8908 39.6715 34.178C39.5862 34.7576 39.4234 35.633 39.2717 36.3946C38.7988 36.2433 38.3052 36.1664 37.8087 36.1666H37.7642C36.3509 31.5024 34.7545 29.0878 32.7558 28.5822C31.8794 28.3601 30.5137 28.4196 28.9884 29.9624C28.9162 30.0352 28.8532 30.1166 28.8009 30.2048C26.515 34.0678 22.4325 35.9128 16.6696 35.6897C16.4726 35.6821 16.2765 35.7213 16.0976 35.8041C15.9186 35.8868 15.7618 36.0109 15.6401 36.166C15.0964 36.166 14.5568 36.2585 14.0441 36.4396C13.2857 34.3943 13.0479 32.4063 13.3377 30.5176ZM13.3268 40.9825C13.3276 40.5157 13.4693 40.0601 13.7333 39.6751C13.9973 39.2902 14.3715 38.994 14.8066 38.8253C14.5591 40.2555 14.5652 41.7182 14.8246 43.1463C14.385 42.9801 14.0063 42.6842 13.7388 42.2978C13.4713 41.9113 13.3276 41.4527 13.3268 40.9827V40.9825ZM17.5099 38.2088H17.6093C23.7553 38.2088 28.2122 35.9952 30.8676 31.6202C31.2426 31.2608 31.737 30.9024 32.1428 31.006C32.5254 31.1027 33.8981 31.842 35.4907 37.2901C35.5038 37.335 35.5195 37.379 35.5376 37.422C36.3514 39.3664 36.4996 41.5254 35.9591 43.5628C35.4186 45.6001 34.2198 47.4017 32.5492 48.6869C30.8787 49.9721 28.8301 50.6689 26.7225 50.6689C24.6148 50.6688 22.5663 49.9719 20.8958 48.6865C19.3487 47.4788 18.199 45.8349 17.5955 43.9672C16.9919 42.0995 16.9621 40.0937 17.5099 38.2088ZM26.7224 53.1657C28.4364 53.1655 30.1308 52.8 31.6926 52.0937V54.8277L26.8302 58.2812L21.9675 54.8277V52.1915C23.4702 52.8349 25.0878 53.1664 26.7224 53.1657ZM20.6265 56.9415L24.6713 59.8143L18.4301 64.2466V57.6736L20.6265 56.9415ZM3.44577 67.0934C3.43177 65.8034 3.83059 64.5428 4.58397 63.4957C5.33735 62.4485 6.40581 61.6698 7.63325 61.2732L15.9301 58.5073V66.6679C15.9301 66.8973 15.9932 67.1222 16.1125 67.3181C16.2319 67.514 16.4028 67.6733 16.6066 67.7786C16.8104 67.8838 17.0393 67.9309 17.2681 67.9148C17.4969 67.8987 17.7168 67.8199 17.9038 67.687L21.4819 65.146L22.1118 68.7476L20.529 77.7986H11.9231V72.3284C11.9231 71.9968 11.7914 71.6789 11.557 71.4444C11.3225 71.21 11.0046 71.0783 10.6731 71.0783C10.3416 71.0783 10.0236 71.21 9.7892 71.4444C9.55478 71.6789 9.42308 71.9968 9.42308 72.3284V77.7986H3.44577V67.0934ZM80.9453 27.9721C80.9453 28.3036 80.8136 28.6216 80.5792 28.8561C80.3448 29.0905 80.0268 29.2222 79.6953 29.2222H46.776C46.4445 29.2222 46.1265 29.0905 45.8921 28.8561C45.6577 28.6216 45.526 28.3036 45.526 27.9721C45.526 27.6405 45.6577 27.3226 45.8921 27.0881C46.1265 26.8537 46.4445 26.722 46.776 26.722H51.5202V18.94C51.5202 18.6085 51.6519 18.2905 51.8863 18.056C52.1207 17.8216 52.4387 17.6899 52.7702 17.6899C53.1017 17.6899 53.4196 17.8216 53.6541 18.056C53.8885 18.2905 54.0202 18.6085 54.0202 18.94V26.722H58.4972V12.5916C58.4972 12.2601 58.6289 11.9421 58.8633 11.7076C59.0977 11.4732 59.4156 11.3415 59.7472 11.3415C60.0787 11.3415 60.3966 11.4732 60.631 11.7076C60.8655 11.9421 60.9972 12.2601 60.9972 12.5916V26.722H65.4742V15.4227C65.4742 15.0911 65.6059 14.7731 65.8403 14.5387C66.0747 14.3042 66.3926 14.1725 66.7242 14.1725C67.0557 14.1725 67.3736 14.3042 67.608 14.5387C67.8425 14.7731 67.9741 15.0911 67.9741 15.4227V26.722H72.4513V8.98831C72.4513 8.65676 72.583 8.33878 72.8174 8.10434C73.0518 7.8699 73.3698 7.73819 73.7013 7.73819C74.0328 7.73819 74.3508 7.8699 74.5852 8.10434C74.8196 8.33878 74.9513 8.65676 74.9513 8.98831V26.722H79.6953C80.0268 26.722 80.3448 26.8537 80.5792 27.0881C80.8136 27.3226 80.9453 27.6405 80.9453 27.9721ZM72.8538 0.622531C73.0981 0.401189 73.4199 0.2853 73.7492 0.300088C74.0785 0.314876 74.3886 0.459144 74.612 0.70149C74.8355 0.943837 74.9542 1.26464 74.9423 1.59408C74.9304 1.92352 74.7888 2.23493 74.5485 2.46051L67.5715 8.89486C67.3972 9.05556 67.1809 9.16339 66.9476 9.20578C66.7144 9.24817 66.474 9.22336 66.2543 9.13426L60.0064 6.59902L53.6114 12.4175C53.3659 12.6387 53.0428 12.7536 52.7128 12.7372C52.3828 12.7208 52.0727 12.5744 51.8503 12.33C51.628 12.0856 51.5114 11.763 51.5261 11.4329C51.5408 11.1028 51.6857 10.7919 51.9289 10.5683L58.9059 4.21974C59.0802 4.06101 59.2957 3.95479 59.5277 3.91331C59.7597 3.87184 59.9987 3.89681 60.2172 3.98534L66.4596 6.51823L72.8538 0.622531ZM46.5044 39.7169C46.2269 39.7787 45.9786 39.9332 45.8007 40.1551C45.6228 40.3769 45.5258 40.6528 45.5258 40.9372V44.0923C45.5258 44.3767 45.6228 44.6526 45.8007 44.8745C45.9786 45.0963 46.2269 45.2509 46.5044 45.3126L47.463 45.5259C47.6213 46.014 47.8181 46.4888 48.0516 46.9457L47.5243 47.7747C47.3716 48.0147 47.3053 48.2996 47.3363 48.5823C47.3674 48.8651 47.4939 49.1287 47.695 49.3299L49.9258 51.5604C50.1269 51.7615 50.3905 51.8879 50.6731 51.919C50.9558 51.9501 51.2406 51.8838 51.4805 51.7312L52.3094 51.2039C52.7663 51.4375 53.2411 51.6344 53.7292 51.7926L53.9423 52.7511C54.0041 53.0287 54.1586 53.277 54.3805 53.4549C54.6023 53.6328 54.8781 53.7298 55.1625 53.7298H58.3169C58.6012 53.7298 58.8771 53.6328 59.0989 53.4549C59.3207 53.277 59.4753 53.0287 59.537 52.7511L59.7501 51.7926C60.2383 51.6344 60.7132 51.4376 61.1701 51.2039L61.9982 51.7312C62.2382 51.8838 62.5229 51.9501 62.8056 51.919C63.0882 51.8879 63.3518 51.7615 63.5529 51.5604L65.7837 49.3299C65.9848 49.1287 66.1113 48.8651 66.1424 48.5823C66.1734 48.2996 66.1072 48.0147 65.9545 47.7747L65.4271 46.9457C65.6607 46.4888 65.8575 46.014 66.0159 45.5259L66.9743 45.3126C67.2519 45.2509 67.5001 45.0963 67.678 44.8745C67.8559 44.6526 67.9529 44.3767 67.9529 44.0923V40.9369C67.9529 40.6525 67.8559 40.3766 67.678 40.1548C67.5001 39.9329 67.2519 39.7784 66.9743 39.7166L66.0157 39.5035C65.8575 39.0153 65.6607 38.5406 65.4271 38.0837L65.9545 37.2545C66.1071 37.0145 66.1733 36.7297 66.1423 36.447C66.1112 36.1643 65.9846 35.9006 65.7835 35.6995L63.5531 33.4689C63.352 33.2678 63.0883 33.1413 62.8056 33.1103C62.523 33.0792 62.2382 33.1455 61.9982 33.2982L61.1701 33.8255C60.7131 33.5919 60.2383 33.395 59.7501 33.2366L59.537 32.2781C59.4752 32.0006 59.3207 31.7523 59.0989 31.5744C58.877 31.3965 58.6012 31.2996 58.3169 31.2996H55.1625C54.8782 31.2996 54.6023 31.3965 54.3805 31.5744C54.1587 31.7523 54.0041 32.0006 53.9423 32.2781L53.7292 33.2366C53.2411 33.3949 52.7663 33.5918 52.3094 33.8255L51.4805 33.2982C51.2406 33.1455 50.9558 33.0792 50.6731 33.1103C50.3904 33.1413 50.1268 33.2678 49.9257 33.4689L47.6955 35.6995C47.4944 35.9006 47.3679 36.1643 47.3368 36.447C47.3057 36.7297 47.3719 37.0145 47.5246 37.2545L48.0519 38.0837C47.8183 38.5406 47.6215 39.0154 47.4632 39.5036L46.5044 39.7169ZM48.0258 41.9398L48.7357 41.7821C48.9651 41.7311 49.1756 41.6163 49.3428 41.451C49.51 41.2858 49.6272 41.0767 49.681 40.8478C49.8595 40.0894 50.16 39.3649 50.5707 38.7028C50.6945 38.5029 50.7594 38.2721 50.758 38.037C50.7566 37.8018 50.6889 37.5718 50.5627 37.3734L50.1721 36.7589L50.9846 35.9463L51.5991 36.3369C51.7973 36.4629 52.0271 36.5305 52.262 36.5319C52.4969 36.5333 52.7274 36.4685 52.9272 36.3449C53.5894 35.9342 54.3138 35.6337 55.0723 35.4553C55.3012 35.4015 55.5102 35.2843 55.6755 35.1171C55.8407 34.9499 55.9555 34.7395 56.0066 34.51L56.1642 33.8001H57.3136L57.4714 34.51C57.5225 34.7395 57.6372 34.95 57.8025 35.1172C57.9677 35.2844 58.1768 35.4017 58.4056 35.4555C59.1641 35.6338 59.8886 35.9342 60.5508 36.3451C60.7505 36.4687 60.9811 36.5334 61.216 36.532C61.4509 36.5306 61.6806 36.463 61.8789 36.3369L62.4934 35.9463L63.3059 36.7589L62.9153 37.3734C62.7891 37.5718 62.7214 37.8018 62.72 38.037C62.7185 38.2721 62.7835 38.5029 62.9073 38.7028C63.318 39.365 63.6185 40.0896 63.797 40.8481C63.8508 41.077 63.9681 41.286 64.1353 41.4512C64.3025 41.6164 64.5129 41.7311 64.7423 41.7821L65.4521 41.9398V43.0894L64.7423 43.2473C64.5128 43.2983 64.3024 43.4131 64.1352 43.5783C63.968 43.7435 63.8508 43.9526 63.797 44.1814C63.6185 44.9399 63.318 45.6644 62.9073 46.3266C62.7835 46.5265 62.7185 46.7573 62.72 46.9924C62.7214 47.2276 62.7891 47.4576 62.9153 47.656L63.3059 48.2704L62.4934 49.083L61.8789 48.6923C61.6806 48.5663 61.4508 48.4988 61.2159 48.4974C60.981 48.496 60.7505 48.5609 60.5508 48.6845C59.8885 49.0951 59.1641 49.3955 58.4056 49.5739C58.1768 49.6278 57.9678 49.745 57.8025 49.9122C57.6373 50.0794 57.5226 50.2899 57.4715 50.5193L57.3137 51.2293H56.1644L56.0067 50.5193C55.9557 50.2898 55.8409 50.0793 55.6756 49.9121C55.5103 49.7448 55.3012 49.6276 55.0723 49.5738C54.3139 49.3955 53.5895 49.0951 52.9274 48.6843C52.7276 48.5607 52.4971 48.4959 52.2622 48.4973C52.0273 48.4987 51.7975 48.5663 51.5992 48.6923L50.9847 49.083L50.1722 48.2704L50.5628 47.656C50.689 47.4576 50.7567 47.2276 50.7582 46.9924C50.7596 46.7573 50.6946 46.5265 50.5708 46.3266C50.1601 45.6643 49.8596 44.9397 49.6811 44.1811C49.6273 43.9523 49.51 43.7433 49.3428 43.5782C49.1756 43.413 48.9652 43.2983 48.7358 43.2473L48.026 43.0894L48.0258 41.9398ZM56.7397 47.8114C57.7873 47.8114 58.8114 47.5008 59.6824 46.9187C60.5535 46.3366 61.2324 45.5093 61.6333 44.5413C62.0342 43.5733 62.1391 42.5082 61.9347 41.4806C61.7304 40.453 61.2259 39.5091 60.4851 38.7683C59.7443 38.0274 58.8005 37.5229 57.773 37.3185C56.7456 37.1141 55.6805 37.219 54.7127 37.6199C53.7448 38.0209 52.9175 38.6999 52.3355 39.571C51.7535 40.4422 51.4428 41.4664 51.4428 42.5141C51.4444 43.9186 52.0029 45.2651 52.9959 46.2582C53.989 47.2513 55.3353 47.8099 56.7397 47.8114ZM56.7397 39.7169C57.2928 39.7169 57.8336 39.881 58.2935 40.1883C58.7535 40.4957 59.112 40.9325 59.3236 41.4437C59.5353 41.9548 59.5907 42.5172 59.4828 43.0598C59.3749 43.6024 59.1085 44.1008 58.7174 44.4919C58.3262 44.8831 57.8279 45.1495 57.2853 45.2575C56.7428 45.3654 56.1804 45.31 55.6694 45.0983C55.1583 44.8866 54.7215 44.5281 54.4142 44.0681C54.1069 43.6081 53.9428 43.0673 53.9428 42.5141C53.9436 41.7725 54.2385 41.0615 54.7629 40.5371C55.2872 40.0127 55.9981 39.7177 56.7397 39.7169Z" fill="#056AB2"/>
</svg>
