<svg width="76" height="81" viewBox="0 0 76 81" fill="none" xmlns="https://www.w3.org/2000/svg">
<path d="M75.8247 18.4432C75.8071 16.8887 75.1582 15.4038 74.0006 14.3558C72.8638 13.2733 71.3463 12.6776 69.7735 12.6965H68.2651V5.58739C68.2827 4.60927 67.388 4.53942 67.2128 4.53942L32.0105 4.66177L28.134 0.888633C27.9761 0.783789 27.7831 0.731445 27.5901 0.731445L13.4882 0.783789L7.57736 0.818789H7.45451C6.92827 0.888633 6.52489 1.32535 6.52489 1.86676V12.9237H5.99865C2.68369 12.9412 -0.0174874 15.5438 8.52574e-05 18.7402L0.175498 60.3822V63.928C0.193071 65.4825 0.842005 66.9674 1.99961 68.0153C3.13635 69.0979 4.65388 69.6936 6.22662 69.6747L29.8352 69.5874L28.6425 75.2292H24.661C24.0822 75.2292 23.6261 75.6835 23.6261 76.2599V79.6835C23.6437 79.963 23.7489 80.225 23.9418 80.4346C24.1348 80.6268 24.3979 80.7314 24.6784 80.7314H24.696L51.6195 80.6266C51.9002 80.6266 52.1808 80.5218 52.3738 80.3122C52.5667 80.12 52.6719 79.858 52.6719 79.5786V76.19C52.6719 75.6136 52.1983 75.1421 51.6195 75.1421H47.6381L46.3928 69.5002L69.9662 69.4128C73.3163 69.3953 76.0175 66.7927 75.9999 63.6138L75.8247 18.4432ZM66.2654 50.7751L8.76995 51.0022L8.66483 15.1419H66.1779L66.2654 50.7751ZM27.1518 2.84504L31.0105 6.61802C31.1684 6.74036 31.3789 6.79271 31.5718 6.77521L66.1427 6.65286V13.0458H8.66483V2.89739L27.1518 2.84504ZM6.03379 15.0371H6.56003L6.66531 52.0678C6.66531 52.3473 6.77059 52.6267 6.98099 52.8189C7.17398 53.0111 7.4371 53.1158 7.71763 53.1158L67.3355 52.8887C67.9143 52.8887 68.3704 52.4345 68.3704 51.8581V51.8406L68.2827 14.7926H69.7735C70.8084 14.7926 71.8082 15.1768 72.5624 15.8755C73.2815 16.5393 73.7024 17.4826 73.72 18.4607L73.8779 59.0722L2.26288 59.3517L2.10504 18.7229C2.10489 16.6965 3.85886 15.0371 6.03379 15.0371ZM50.5674 77.2557V78.5482L25.731 78.653V77.3605L50.5674 77.2557ZM45.4809 75.1596L30.8 75.2294L31.9927 69.57L44.2356 69.5177L45.4809 75.1596ZM69.9664 67.3342L6.22678 67.5788C5.19187 67.5788 4.19211 67.1945 3.4379 66.4958C2.71883 65.832 2.29787 64.9063 2.2803 63.9281V61.4303L73.8777 61.1508V63.6311C73.9128 65.6574 72.1413 67.3167 69.9664 67.3342Z" fill="#056AB2"/>
<path d="M11.7862 9.91892C11.9792 10.1284 12.2423 10.2333 12.5229 10.2333H16.0834C16.6622 10.2333 17.1183 9.77907 17.1183 9.20267V5.62188C17.1183 5.34235 16.9954 5.08031 16.8026 4.88828C16.6096 4.67875 16.3291 4.57391 16.0484 4.57391H12.5054C11.9266 4.57391 11.4531 5.04547 11.4531 5.62188V9.18517C11.453 9.4647 11.5758 9.72673 11.7862 9.91892ZM15.0136 6.6875V8.11985H13.5753V6.6875H15.0136ZM20.1703 9.88392C20.3633 10.0934 20.6264 10.1983 20.9069 10.1983H24.4674C24.7481 10.1983 25.0287 10.0934 25.2216 9.88392C25.4146 9.69173 25.5197 9.4297 25.5197 9.15032V5.58703C25.5197 5.01063 25.0462 4.53906 24.4674 4.53906H20.8893C20.3105 4.53906 19.837 5.01063 19.837 5.58703V9.15032C19.837 9.42985 19.9599 9.69173 20.1703 9.88392ZM23.3975 6.6525V8.08485H21.9417V6.6525H23.3975ZM57.7757 11.5608H59.8629C60.4417 11.5608 60.9152 11.0892 60.9152 10.5128C60.9152 9.93642 60.4417 9.46485 59.8629 9.46485H57.7757C57.1969 9.46485 56.7233 9.93642 56.7233 10.5128V10.5303C56.7233 11.1067 57.1795 11.561 57.7583 11.561L57.7757 11.5608ZM51.356 11.5958H53.4432C54.022 11.5958 54.4955 11.1242 54.4955 10.5478C54.4955 9.97142 54.022 9.49985 53.4432 9.49985H51.356C50.7772 9.49985 50.3037 9.97142 50.3037 10.5478C50.3037 11.1241 50.7772 11.5958 51.356 11.5958ZM44.7786 11.6131H46.8659C47.4447 11.6131 47.9182 11.1416 47.9182 10.5652C47.9114 10.2893 47.7984 10.0267 47.6025 9.83156C47.4066 9.63646 47.1428 9.5239 46.8659 9.5172H44.7611C44.6221 9.51699 44.4846 9.54467 44.3566 9.59858C44.2286 9.65249 44.1129 9.73154 44.0163 9.83099C43.9197 9.93044 43.8442 10.0483 43.7944 10.1774C43.7445 10.3066 43.7213 10.4444 43.7261 10.5827C43.7437 11.1766 44.1998 11.6131 44.7786 11.6131ZM46.5326 38.146C46.7256 38.5129 47.0938 38.7399 47.4972 38.7399C47.6551 38.7399 47.7953 38.7049 47.9357 38.6351L60.8976 32.5041C61.4239 32.2421 61.6343 31.5958 61.3712 31.0718C61.2703 30.8666 61.1037 30.7007 60.8976 30.6002L47.9357 24.4693C47.4271 24.2072 46.7957 24.4169 46.5502 24.9235C46.5502 24.941 46.5326 24.941 46.5326 24.9585C46.287 25.4825 46.515 26.1113 47.0413 26.3558L57.9861 31.5436L47.0413 36.749C46.515 36.9932 46.287 37.6219 46.5326 38.146ZM12.8561 32.5041L25.818 38.6351C25.9536 38.7045 26.104 38.7405 26.2565 38.7399C26.6599 38.7399 27.0283 38.5129 27.2212 38.146C27.4667 37.6219 27.2387 36.9932 26.7125 36.7487L15.7677 31.5433L26.7125 26.3555C27.2387 26.111 27.4667 25.4821 27.2212 24.9582C26.9756 24.4341 26.3441 24.2246 25.818 24.4691L12.8561 30.6001C12.3299 30.8621 12.1195 31.5083 12.3826 32.0324C12.4834 32.2376 12.65 32.4036 12.8561 32.5041ZM33.29 30.0063C33.7461 29.6569 33.8337 28.9932 33.483 28.5391C33.483 28.5391 33.483 28.5216 33.4654 28.5216C33.0093 27.9102 32.7638 27.1766 32.7638 26.4255V26.3382C32.7638 24.4343 34.3949 22.8971 36.3946 22.8971H36.4823C38.5344 22.8971 40.2008 24.4343 40.2182 26.3382C40.2358 28.2421 38.4818 29.5871 37.4469 30.0761C36.6751 30.4255 36.184 31.1766 36.184 32.0151V35.299C36.184 35.8754 36.6575 36.3469 37.2363 36.3469C37.8151 36.3469 38.2887 35.8754 38.2887 35.299V32.0151L38.3238 31.9801C39.5341 31.4211 42.358 29.7443 42.3228 26.3207C42.3053 23.2813 39.6744 20.801 36.4821 20.801H36.3944C33.2373 20.801 30.6764 23.2638 30.659 26.3032C30.6238 27.5608 31.0274 28.801 31.799 29.8141C32.1676 30.2683 32.8165 30.3557 33.29 30.0063ZM37.2892 38.5477C36.7104 38.5477 36.2369 39.0193 36.2369 39.5957V41.2551C36.2369 41.8315 36.7104 42.303 37.2892 42.303C37.868 42.303 38.3415 41.8315 38.3415 41.2551V39.5957C38.3415 39.0194 37.868 38.5477 37.2892 38.5477Z" fill="#056AB2"/>
</svg>
