<svg width="80" height="80" viewBox="0 0 80 80" fill="none" xmlns="https://www.w3.org/2000/svg">
<path d="M76 0H4C2.9395 0.00119105 1.92278 0.423001 1.17289 1.17289C0.423001 1.92278 0.00119105 2.9395 0 4V61.3333C0.00119105 62.3938 0.423001 63.4106 1.17289 64.1604C1.92278 64.9103 2.9395 65.3321 4 65.3333H30.2543L26.9817 77.3333H24V80H56V77.3333H53.0183L49.7457 65.3333H76C77.0605 65.3321 78.0772 64.9103 78.8271 64.1604C79.577 63.4106 79.9988 62.3938 80 61.3333V4C79.9988 2.9395 79.577 1.92278 78.8271 1.17289C78.0772 0.423001 77.0605 0.00119105 76 0ZM50.2543 77.3333H29.7457L33.0183 65.3333H46.9817L50.2543 77.3333ZM77.3333 61.3333C77.3329 61.6868 77.1923 62.0257 76.9423 62.2757C76.6924 62.5256 76.3535 62.6662 76 62.6667H4C3.64651 62.6662 3.30763 62.5256 3.05768 62.2757C2.80773 62.0257 2.66711 61.6868 2.66667 61.3333V56H77.3333V61.3333ZM26.7602 43.3877L28.721 41.4268L32.7332 43.0228L36.909 41.2927L38.6133 37.3333H41.3867L43.091 41.2927L47.2668 43.0227L51.279 41.4268L53.2398 43.3877L51.6437 47.3997L53.3742 51.5757L57.3333 53.2802V53.3333H50.5803C50.2562 50.7559 49.0024 48.3854 47.0543 46.6669C45.1062 44.9485 42.5977 44.0002 40 44.0002C37.4023 44.0002 34.8938 44.9485 32.9457 46.6669C30.9976 48.3854 29.7438 50.7559 29.4197 53.3333H22.6667V53.28L26.6258 51.5757L28.3563 47.3997L26.7602 43.3877ZM47.8868 53.3333H32.1132C32.4277 51.4691 33.3925 49.7766 34.8363 48.5561C36.28 47.3355 38.1095 46.6659 40 46.6659C41.8906 46.6659 43.72 47.3355 45.1638 48.5561C46.6075 49.7766 47.5723 51.4691 47.8868 53.3333ZM77.3333 53.3333H60V51.525L55.4232 49.5545L54.5218 47.3792L56.3663 42.7428L51.9237 38.3005L47.2873 40.1448L45.1123 39.2435L43.1417 34.6667H36.8583L34.888 39.2433L32.7128 40.145L28.0765 38.3005L23.6338 42.7428L25.4783 47.3792L24.577 49.5545L20 51.525V53.3333H2.66667V4C2.66711 3.64651 2.80773 3.30763 3.05768 3.05768C3.30763 2.80773 3.64651 2.66711 4 2.66667H76C76.3535 2.66711 76.6924 2.80773 76.9423 3.05768C77.1923 3.30763 77.3329 3.64651 77.3333 4V53.3333Z" fill="#056AB2"/>
<path d="M70.6693 19.9997C70.6693 17.0989 69.8091 14.2632 68.1975 11.8513C66.5859 9.4394 64.2953 7.55953 61.6153 6.44945C58.9353 5.33936 55.9863 5.04891 53.1413 5.61483C50.2962 6.18075 47.6829 7.57761 45.6317 9.62878C43.5805 11.68 42.1837 14.2933 41.6178 17.1384C41.0518 19.9834 41.3423 22.9324 42.4524 25.6124C43.5625 28.2924 45.4423 30.583 47.8542 32.1946C50.2662 33.8062 53.1018 34.6663 56.0026 34.6663H57.3359V21.333H70.6693V19.9997ZM54.6693 31.9262C52.5361 31.6892 50.5056 30.884 48.7897 29.5946C47.0739 28.3052 45.7356 26.5789 44.9145 24.5958C44.0935 22.6127 43.8198 20.4456 44.122 18.3207C44.4242 16.1958 45.2912 14.1909 46.6326 12.5153L54.6693 20.552V31.9262ZM56.5549 18.6663L48.5183 10.6297C50.1938 9.28826 52.1987 8.42119 54.3237 8.11896C56.4486 7.81672 58.6158 8.09042 60.5989 8.91148C62.582 9.73253 64.3083 11.0708 65.5977 12.7867C66.8871 14.5026 67.6923 16.5331 67.9293 18.6663H56.5549Z" fill="#056AB2"/>
<path d="M59.9974 37.333H61.4974C64.6347 37.3295 67.6425 36.0816 69.8609 33.8632C72.0793 31.6448 73.3272 28.637 73.3307 25.4997V23.9997H59.9974V37.333ZM62.6641 26.6663H70.5902C70.329 28.677 69.4099 30.5448 67.9762 31.9785C66.5425 33.4122 64.6747 34.3313 62.6641 34.5925V26.6663ZM34.6641 5.33301H10.6641C9.60356 5.3342 8.58684 5.75601 7.83695 6.5059C7.08706 7.25578 6.66525 8.27251 6.66406 9.33301V27.9997C6.66525 29.0602 7.08706 30.0769 7.83695 30.8268C8.58684 31.5767 9.60356 31.9985 10.6641 31.9997H34.6641C35.7246 31.9985 36.7413 31.5767 37.4912 30.8268C38.2411 30.0769 38.6629 29.0602 38.6641 27.9997V9.33301C38.6629 8.27251 38.2411 7.25578 37.4912 6.5059C36.7413 5.75601 35.7246 5.3342 34.6641 5.33301ZM35.9974 27.9997C35.997 28.3532 35.8563 28.692 35.6064 28.942C35.3564 29.1919 35.0175 29.3326 34.6641 29.333H10.6641C10.3106 29.3326 9.97169 29.1919 9.72174 28.942C9.47179 28.692 9.33117 28.3532 9.33073 27.9997V13.333H35.9974V27.9997ZM35.9974 10.6663H9.33073V9.33301C9.33117 8.97952 9.47179 8.64064 9.72174 8.39069C9.97169 8.14073 10.3106 8.00012 10.6641 7.99967H34.6641C35.0175 8.00012 35.3564 8.14073 35.6064 8.39069C35.8563 8.64064 35.997 8.97952 35.9974 9.33301V10.6663ZM6.66406 35.9997H22.6641V38.6663H6.66406V35.9997ZM6.66406 41.333H18.6641V43.9997H6.66406V41.333ZM6.66406 46.6663H18.6641V49.333H6.66406V46.6663ZM59.9974 41.333H73.3307V43.9997H59.9974V41.333ZM59.9974 46.6663H73.3307V49.333H59.9974V46.6663Z" fill="#056AB2"/>
<path d="M18.2736 24.3906L15.2163 21.3335L18.2736 18.2763L16.388 16.3906L11.4453 21.3335L16.388 26.2763L18.2736 24.3906ZM20.0738 24.841L22.7376 18.1776L25.2123 19.1671L22.5485 25.8303L20.0738 24.841ZM28.9403 26.2763L33.883 21.3335L28.9403 16.3906L27.0546 18.2763L30.112 21.3335L27.0546 24.3906L28.9403 26.2763Z" fill="#056AB2"/>
</svg>
