<?xml version="1.0" encoding="UTF-8"?>
<svg preserveAspectRatio="xMidYMid" version="1.1" viewBox="0 0 256 264" xmlns="https://www.w3.org/2000/svg">
<path d="m255.01 158.09c-1.5348-4.6482-5.5557-7.8863-10.756-8.6638-2.4518-0.36597-5.2601-0.20988-8.5828 0.47534-5.7916 1.1949-10.089 1.6495-13.224 1.7382 11.836-19.985 21.461-42.776 27.002-64.229 8.9594-34.688 4.1717-50.491-1.4231-57.64-14.807-18.919-36.409-29.083-62.472-29.395-13.902-0.16968-26.108 2.5754-32.474 4.5489-5.9282-1.0453-12.303-1.6294-18.991-1.7376-12.536-0.19983-23.613 2.5328-33.078 8.1494-5.2412-1.7713-13.65-4.2692-23.362-5.8638-22.843-3.7501-41.252-0.82771-54.718 8.6851-16.306 11.518-23.865 31.53-22.467 59.48 0.44342 8.8743 5.4079 35.874 13.224 61.48 4.4921 14.717 9.2822 26.94 14.237 36.33 7.0267 13.315 14.545 21.156 22.986 23.972 4.7316 1.5768 13.327 2.68 22.369-4.8486 1.1458 1.387 2.6741 2.7663 4.7038 4.0469 2.5766 1.6253 5.7278 2.9532 8.8743 3.7401 11.341 2.8355 21.965 2.126 31.027-1.8476 0.055575 1.6117 0.098734 3.1518 0.13539 4.4815 0.060305 2.1574 0.11943 4.2722 0.19865 6.2498 0.53683 13.375 1.4467 23.774 4.1427 31.049 0.14781 0.40085 0.34705 1.0104 0.55752 1.6566 1.3444 4.1185 3.5941 11.012 9.3153 16.412 5.9258 5.5924 13.093 7.3081 19.656 7.3075 3.2919 0 6.4331-0.43159 9.1876-1.0222 9.8208-2.1042 20.974-5.311 29.042-16.798 7.6274-10.86 11.336-27.217 12.007-52.991 0.08691-0.72839 0.16732-1.4243 0.24477-2.0876 0.052028-0.44756 0.10524-0.90516 0.15904-1.3616l1.7973 0.15786 0.46293 0.031335c10.002 0.45583 22.232-1.6655 29.743-5.1543 5.9353-2.7545 24.954-12.795 20.476-26.351"/>
<path d="m237.91 160.72c-29.74 6.1345-31.784-3.9346-31.784-3.9346 31.4-46.593 44.527-105.74 33.199-120.21-30.903-39.485-84.398-20.811-85.291-20.326l-0.28734 0.051436c-5.8756-1.2197-12.451-1.9463-19.841-2.0669-13.457-0.22053-23.664 3.5278-31.41 9.4016 0 0-95.43-39.313-90.992 49.444 0.94418 18.883 27.064 142.87 58.218 105.42 11.387-13.695 22.389-25.274 22.389-25.274 5.4647 3.6301 12.007 5.4818 18.865 4.8167l0.53269-0.45229c-0.16554 1.7004-0.089866 3.3635 0.21343 5.3322-8.0259 8.9671-5.6675 10.542-21.712 13.844-16.234 3.3457-6.6974 9.3023-0.47061 10.859 7.5487 1.8878 25.013 4.5619 36.813-11.957l-0.47061 1.8848c3.1447 2.5186 5.3529 16.383 4.9828 28.952-0.37011 12.569-0.61724 21.198 1.8606 27.938s4.9474 21.905 26.039 17.386c17.624-3.7767 26.756-13.564 28.027-29.889 0.90162-11.606 2.9419-9.8906 3.0708-20.267l1.6365-4.9125c1.8872-15.733 0.29975-20.809 11.158-18.448l2.6386 0.23176c7.9916 0.3636 18.451-1.2853 24.59-4.1386 13.219-6.1345 21.058-16.377 8.0247-13.686h0.001183" fill="#336791"/>
<path d="m108.08 81.525c-2.6794-0.37306-5.107-0.027788-6.335 0.90162-0.69114 0.52323-0.90457 1.1292-0.96192 1.5466-0.15431 1.105 0.62019 2.3265 1.0955 2.9567 1.3456 1.7837 3.312 3.0099 5.2583 3.2801 0.28201 0.039021 0.56226 0.05794 0.84131 0.05794 3.2458 0 6.196-2.5269 6.4562-4.3922 0.32517-2.3359-3.0661-3.8932-6.3545-4.3508" fill="#fff"/>
<path d="m196.86 81.599h-5.92e-4c-0.25541-1.831-3.5142-2.3531-6.6063-1.9233-3.0874 0.43041-6.0819 1.8239-5.8318 3.6591 0.20102 1.4272 2.777 3.8636 5.8277 3.8631 0.25718 0 0.51732-0.017146 0.77923-0.053801 2.0362-0.28201 3.5302-1.575 4.2397-2.3206 1.0813-1.1352 1.7063-2.4016 1.5922-3.2245" fill="#fff"/>
<path d="m247.8 160.03c-1.134-3.4291-4.7836-4.5329-10.848-3.2801-18.005 3.7158-24.453 1.1417-26.571-0.4174 13.995-21.321 25.508-47.092 31.719-71.137 2.9425-11.39 4.5678-21.968 4.7002-30.589 0.14662-9.4643-1.4645-16.418-4.7889-20.666-13.402-17.125-33.072-26.311-56.882-26.564-16.369-0.18387-30.199 4.0055-32.88 5.1833-5.6462-1.4042-11.801-2.2662-18.502-2.3761-12.289-0.19865-22.91 2.7433-31.704 8.7395-3.8199-1.4213-13.692-4.8102-25.764-6.7547-20.873-3.3611-37.458-0.81471-49.294 7.5706-14.123 10.006-20.643 27.892-19.38 53.159 0.42509 8.5018 5.2684 34.653 12.913 59.699 10.062 32.964 20.999 51.625 32.508 55.463 1.3468 0.44933 2.9005 0.76386 4.6127 0.76386 4.1983 0 9.3449-1.8925 14.7-8.3303 8.895-10.701 17.2-19.668 20.261-22.926 4.524 2.4287 9.4933 3.7844 14.577 3.9204 0.008868 0.13303 0.022466 0.26605 0.034291 0.39848-1.0199 1.2096-1.8564 2.2697-2.5695 3.1749-3.5219 4.4708-4.255 5.4014-15.592 7.7362-3.2245 0.66513-11.791 2.4305-11.916 8.4344-0.13657 6.5596 10.124 9.3147 11.294 9.6068 4.0741 1.0199 7.9987 1.523 11.742 1.523 9.1037-5.92e-4 17.114-2.9922 23.517-8.7809-0.19747 23.386 0.77805 46.43 3.5858 53.451 2.2993 5.7473 7.9177 19.795 25.664 19.794 2.6032 0 5.47-0.30271 8.623-0.97848 18.521-3.9713 26.563-12.157 29.675-30.203 1.6649-9.6446 4.5223-32.676 5.8655-45.03 2.8361 0.88447 6.4875 1.2895 10.435 1.2889 8.2322 0 17.731-1.7488 23.688-4.514 6.6915-3.1075 18.768-10.734 16.578-17.36zm-44.106-83.481c-0.061488 3.6473-0.56344 6.9581-1.0955 10.414-0.5723 3.717-1.1647 7.56-1.3137 12.225-0.14722 4.54 0.41977 9.2603 0.96842 13.825 1.108 9.2195 2.2449 18.712-2.1568 28.078-0.68405-1.215-1.3444-2.5405-1.9499-4.0085-0.54688-1.3261-1.7347-3.4563-3.3788-6.4047-6.3994-11.476-21.385-38.349-13.713-49.315 2.2845-3.2647 8.0832-6.6199 22.64-4.8137zm-17.644-61.786c21.334 0.47121 38.209 8.4521 50.158 23.72 9.164 11.711-0.92704 64.998-30.14 110.97-0.28852-0.36656-0.58236-0.73666-0.88624-1.1162-0.1212-0.15194-0.24477-0.30625-0.36952-0.46234 7.5487-12.467 6.0725-24.802 4.7588-35.738-0.53979-4.488-1.0494-8.7271-0.91994-12.708 0.13421-4.2213 0.69232-7.8402 1.2315-11.34 0.66394-4.3136 1.3385-8.7761 1.1523-14.037 0.13894-0.55161 0.1951-1.2037 0.12238-1.9776-0.47534-5.0455-6.235-20.144-17.976-33.811-6.4213-7.4743-15.787-15.839-28.574-21.482 5.5002-1.1399 13.022-2.2029 21.443-2.0155zm-119.38 161.02c-5.8998 7.0935-9.9745 5.7343-11.314 5.2879-8.7306-2.9124-18.86-21.364-27.791-50.624-7.7279-25.318-12.244-50.777-12.601-57.916-1.1286-22.578 4.3443-38.313 16.268-46.769 19.404-13.761 51.306-5.5244 64.125-1.3468-0.18446 0.18151-0.37602 0.35178-0.55871 0.53624-21.035 21.244-20.536 57.541-20.485 59.759-0.0017736 0.85609 0.069764 2.0681 0.1685 3.7354 0.36183 6.1044 1.0352 17.467-0.76386 30.334-1.6726 11.957 2.0131 23.66 10.111 32.109 0.83836 0.87442 1.7134 1.6956 2.6173 2.4684-3.6047 3.8601-11.438 12.396-19.775 22.426zm22.479-29.993c-6.5265-6.8091-9.4903-16.281-8.1329-25.989 1.9002-13.593 1.1984-25.431 0.8218-31.791-0.052619-0.88979-0.099326-1.6696-0.12711-2.2851 3.0732-2.7244 17.314-10.355 27.469-8.0282 4.6352 1.0618 7.4583 4.2172 8.6325 9.6458 6.0766 28.103 0.80466 39.816-3.4315 49.228-0.87324 1.9392-1.698 3.772-2.4027 5.6687l-0.5457 1.4656c-1.3823 3.7064-2.6682 7.152-3.4652 10.424-6.9374-0.021284-13.687-2.9845-18.819-8.3398zm1.0648 37.9c-2.0255-0.50609-3.8477-1.3852-4.9166-2.1142 0.89275-0.42036 2.482-0.99148 5.2377-1.5591 13.337-2.7462 15.397-4.6837 19.895-10.395 1.0317-1.309 2.2005-2.7935 3.8193-4.6015 5.91e-4 -0.001182 0.001183-0.001773 0.001774-0.002365 2.4116-2.6995 3.5142-2.2419 5.5143-1.4124 1.6211 0.67104 3.1997 2.7025 3.84 4.9385 0.30271 1.0559 0.64325 3.0608-0.47002 4.6198-9.3963 13.156-23.088 12.987-32.921 10.526zm69.799 64.952c-16.316 3.4959-22.093-4.8291-25.9-14.346-2.4571-6.1446-3.6644-33.851-2.8077-64.448 0.011233-0.40735-0.046707-0.80052-0.15904-1.17-0.097552-0.71361-0.24772-1.4355-0.45583-2.1621-1.2747-4.4519-4.3792-8.176-8.1039-9.7197-1.4798-0.6131-4.1965-1.7382-7.4607-0.90339 0.69646-2.868 1.9037-6.1062 3.2121-9.6133l0.54925-1.4757c0.61842-1.6631 1.3935-3.3859 2.2141-5.2093 4.433-9.8486 10.504-23.337 3.9151-53.811-2.4684-11.414-10.71-16.987-23.204-15.693-7.4908 0.77509-14.343 3.7974-17.761 5.5303-0.73489 0.37247-1.4071 0.73194-2.035 1.0825 0.95364-11.5 4.5583-32.992 18.041-46.59 8.4882-8.5609 19.794-12.789 33.568-12.561 27.14 0.4446 44.544 14.373 54.366 25.979 8.4634 10.002 13.047 20.076 14.876 25.51-13.755-1.3982-23.11 1.3172-27.853 8.0968-10.317 14.747 5.6444 43.372 13.316 57.129 1.4065 2.5216 2.6209 4.7002 3.0028 5.6261 2.4979 6.0541 5.7319 10.096 8.0933 13.047 0.72366 0.90398 1.426 1.7808 1.9599 2.5464-4.1658 1.2014-11.649 3.976-10.967 17.847-0.54984 6.9605-4.4614 39.546-6.4479 51.059-2.6227 15.21-8.2198 20.876-23.958 24.25zm68.104-77.937c-4.2598 1.9776-11.389 3.461-18.161 3.7791-7.4802 0.3506-11.288-0.83776-12.183-1.5685-0.42095-8.6437 2.7971-9.5471 6.2019-10.503 0.53506-0.15076 1.0571-0.29679 1.5608-0.47298 0.31335 0.25482 0.65626 0.50786 1.0317 0.75558 6.0122 3.9683 16.736 4.3963 31.874 1.2717 0.055575-0.011824 0.11115-0.022466 0.16613-0.033699-2.0415 1.9091-5.5356 4.4714-10.49 6.7719z" fill="#fff"/>
</svg>
