<?xml version="1.0" encoding="UTF-8"?>
<svg preserveAspectRatio="xMidYMid" version="1.1" viewBox="0 0 512 228" xmlns="http://www.w3.org/2000/svg">
<defs>
<linearGradient id="a" x1="57.662%" x2="57.662%" y1="2.0464%" y2="94.439%">
<stop stop-color="#97D9F6" offset="0"/>
<stop stop-color="#0F80CC" offset=".92024"/>
<stop stop-color="#0F80CC" offset="1"/>
</linearGradient>
</defs>
<path d="m194.52 112.04c-6.8208 0-12.367 2.019-16.619 6.0552-4.2519 4.0398-6.4088 9.335-6.4088 15.823 0 3.3625 0.53569 6.4283 1.5912 9.2376 1.0555 2.8149 2.6979 5.4227 4.9061 7.779 2.2082 2.3585 6.6281 5.5622 13.215 9.6354 8.0831 4.9345 13.373 8.9393 15.912 12.066 2.5406 3.1243 3.8011 6.3986 3.8011 9.8122 0 4.5705-1.5045 8.2189-4.5967 10.961-3.0975 2.7437-7.2398 4.1105-12.376 4.1105-5.417 0-10.136-1.9096-14.188-5.7017-4.0522-3.7976-6.0977-8.8205-6.1436-15.116h-2.5193v22.851h2.5193c0.76906-2.1638 1.8334-3.2707 3.2265-3.2707 0.67006 0 2.24 0.46214 4.6851 1.326 5.9492 2.1168 10.834 3.1381 14.674 3.1381 6.6175 0 12.266-2.3176 16.972-7.0276 4.6992-4.7079 7.0718-10.387 7.0718-17.017 0-5.1409-1.5664-9.7147-4.6409-13.702-3.0745-3.9917-9.0537-8.6347-17.989-13.967-7.6888-4.6195-12.68-8.3819-14.983-11.315-2.3072-2.9288-3.4917-6.1686-3.4917-9.7238 0-3.8453 1.4126-6.9339 4.1989-9.2376 2.7863-2.3054 6.4371-3.4475 11.006-3.4475 5.1412 0 9.4267 1.5257 12.818 4.5967 3.3874 3.0762 5.3463 7.3391 5.9227 12.818h2.5193v-19.801h-2.3425c-0.28641 1.0095-0.5516 1.6548-0.79558 1.9448-0.23691 0.28818-0.69304 0.44199-1.3702 0.44199-0.81503 0-2.2683-0.34298-4.3315-1.0166-4.4199-1.4886-8.495-2.2541-12.243-2.2541zm82.343 0c-8.3112 0-15.857 1.9589-22.674 5.8785-6.8278 3.9125-12.232 9.3454-16.221 16.265-3.9867 6.9192-5.9669 14.268-5.9669 22.099 0 10.521 3.444 19.895 10.387 28.11 6.9463 8.2106 15.27 13.327 24.928 15.293 2.2082 1.1506 5.3675 4.1208 9.5028 8.9282 4.6603 5.4253 8.6029 9.3383 11.845 11.669 3.2389 2.3314 6.7359 4.0401 10.431 5.1713 3.6986 1.1264 7.6977 1.6796 12.022 1.6796 5.2367 0 9.9253-0.91014 14.055-2.7845l-0.92818-2.2983c-2.3973 0.86471-4.9538 1.2818-7.6464 1.2818-3.6544 0-7.3476-1.205-11.05-3.6243-3.6968-2.4253-8.32-7.0525-13.834-13.878-2.5918-3.2707-4.381-5.3343-5.3923-6.1436 10.567-2.0636 19.257-7.185 26.033-15.381 6.7748-8.1927 10.166-17.543 10.166-28.022 0-12.443-4.427-22.9-13.215-31.425-8.7956-8.5265-19.612-12.818-32.442-12.818zm51.403 0 0.13253 2.6961c5.5337 0 8.6329 1.6301 9.326 4.9061 0.25812 1.1722 0.37658 3.3365 0.39779 6.453l-0.044128 59.624c-0.045967 4.4531-0.68066 7.2964-1.9006 8.5304-1.2217 1.2252-3.2866 1.9925-6.2762 2.2983l-0.13252 2.6961h55.16l1.4144-13.525h-2.5193c-0.71956 3.6844-2.3691 6.3238-4.9945 7.8232-2.6325 1.5104-7.2875 2.2541-14.011 2.2541h-5.2155c-6.0499 0-9.5505-2.1871-10.475-6.5856-0.19094-0.87019-0.25635-1.8031-0.26519-2.8287l0.221-60.287c-0.001415-4.4461 0.56044-7.4254 1.7238-8.884 1.1757-1.4533 3.2955-2.2665 6.3646-2.4751l-0.13253-2.6961h-28.773-1.42e-4zm-50.519 3.2707c9.3737 0 17.027 3.6918 22.939 11.138 5.9103 7.4489 8.8398 17.658 8.8398 30.586 0 12.25-2.9719 22.059-8.9282 29.436-5.9562 7.3756-13.884 11.05-23.735 11.05-9.4639 0-17.139-3.7887-23.028-11.403-5.8838-7.6146-8.7956-17.501-8.7956-29.657 0-12.492 2.9472-22.492 8.884-29.967 5.9333-7.4664 13.878-11.182 23.823-11.182zm126.85 12.818c-1.3454 0-2.3708 0.45436-3.1381 1.3702-0.78497 0.91225-1.0254 2.0172-0.75138 3.3591 0.26519 1.3017 0.9989 2.4426 2.1657 3.4033 1.1598 0.9598 2.4115 1.4586 3.7569 1.4586 1.3012 0 2.293-0.49873 3.0055-1.4586 0.71249-0.96071 0.92994-2.1016 0.66298-3.4033-0.27403-1.3419-0.98298-2.4469-2.0773-3.3591-1.1067-0.9158-2.3231-1.3702-3.6243-1.3702zm36.376 9.1492c-2.286 8.7942-7.2415 13.553-14.851 14.32l0.088398 2.5193h8.884l-0.1768 29.79c0.014144 5.0931 0.16972 8.4841 0.53039 10.21 0.87514 4.1319 3.573 6.232 8.0884 6.232 6.5326 0 13.385-3.9793 20.552-11.934l-2.1657-1.8564c-5.1748 5.2383-9.7503 7.8674-13.746 7.8674-2.4557 0-3.9779-1.4122-4.5525-4.1989-0.15735-0.67677-0.22099-1.4676-0.22099-2.3867l0.088398-33.724h13.569l-0.13252-4.0221h-13.392v-12.818h-2.5635-7e-5zm52.464 11.227c-7.5898 0-13.764 3.6844-18.564 11.006-4.7752 7.3335-6.2533 15.458-4.3757 24.398 1.105 5.2361 3.3061 9.2943 6.674 12.155 3.3627 2.8591 7.6287 4.2873 12.729 4.2873 4.7487 0 11.361-1.2024 14.144-3.6243 2.7898-2.4205 5.3604-6.3418 7.7348-11.713l-1.9006-1.989c-3.787 6.9675-11.43 10.475-17.193 10.475-7.924 0-12.777-4.3474-14.586-12.994-0.23514-1.1037-0.41017-2.2895-0.53039-3.5359 9.4267-1.4925 16.571-4.1354 21.392-7.9558 4.8177-3.8225 9.6548-7.8743 8.7514-12.155-0.53746-2.5436-1.8581-4.5435-3.8895-6.0552-2.0579-1.5111-7.4007-2.2983-10.387-2.2983zm-82.961 0.30939-16.354 3.7569v2.9171l5.6575-0.70718c2.7403 0 4.3527 1.2409 4.8619 3.7127 0.17149 0.82723 0.27934 1.989 0.30939 3.4475l-0.1768 26.74c-0.045967 3.7003-0.45613 5.8514-1.2818 6.4972-0.83271 0.64707-3.0285 0.97238-6.5856 0.97238l-0.088397 2.5193h25.945l-0.044128-2.5193c-3.6049 0-5.9421-0.28446-6.9834-0.83978-1.0236-0.55177-1.7291-1.556-2.0331-3.0939-0.23514-1.1083-0.33768-3.0181-0.35359-5.6575l0.088398-37.746h-2.9613-7.1e-5zm78.807 4.9503c1.5788 0 3.1045 0.60976 4.6409 1.8122 1.5151 1.1982 2.438 2.5305 2.7403 3.9779 1.4798 7.1091-4.823 12.024-19.006 14.762-0.40486-5.1838 0.49326-9.8896 2.7845-14.144 2.2736-4.25 5.2349-6.4088 8.8398-6.4088z" fill="#003B57"/>
<path d="m157.89 9.9518h-140.74c-9.4324 0-17.15 7.7189-17.15 17.151v155.21c0 9.4315 7.7175 17.149 17.15 17.149h92.694c-1.0521-46.121 14.698-135.63 48.044-189.51z" fill="#0F80CC"/>
<path d="m152.77 14.955h-135.62c-6.6975 0-12.148 5.4488-12.148 12.148v143.88c30.716-11.789 76.817-21.961 108.69-21.499 6.4056-33.493 25.231-99.133 39.079-134.53z" fill="url(#a)"/>
<path d="m190.72 4.8725c-9.6389-8.5958-21.309-5.143-32.827 5.0793-1.7096 1.5187-3.4157 3.2035-5.1129 5.0033-19.704 20.903-37.993 59.621-43.676 89.19 2.2135 4.4888 3.9425 10.217 5.0811 14.593 0.29171 1.1227 0.55514 2.1764 0.76552 3.0727 0.50033 2.1214 0.76906 3.497 0.76906 3.497s-0.1768-0.66846-0.90166-2.7704c-0.1379-0.40309-0.29171-0.84332-0.47381-1.3613-0.07779-0.21392-0.18564-0.47381-0.30409-0.75138-1.2853-2.9878-4.8407-9.2941-6.4053-12.04-1.3383 3.9478-2.5211 7.6411-3.5112 10.983 4.5171 8.2648 7.2698 22.429 7.2698 22.429s-0.23867-0.91792-1.3737-4.1216c-1.0077-2.8335-6.027-11.628-7.2159-13.684-2.0339 7.5082-2.842 12.577-2.1132 13.811 1.4149 2.3915 2.7624 6.5179 3.9457 11.081 2.6731 10.28 4.5313 22.796 4.5313 22.796s0.06011 0.82934 0.16088 2.1056c-0.37127 8.6333-0.14851 17.584 0.51978 25.675 0.88574 10.71 2.5529 19.91 4.678 24.834l1.4427-0.78656c-3.1204-9.701-4.3881-22.414-3.8329-37.076 0.83978-22.411 5.9969-49.437 15.526-77.606 16.099-42.523 38.435-76.641 58.878-92.934-18.632 16.827-43.851 71.296-51.4 91.467-8.4526 22.587-14.442 43.784-18.053 64.092 6.2285-19.039 26.367-27.222 26.367-27.222s9.8776-12.182 21.421-29.585c-6.9145 1.577-18.268 4.2767-22.071 5.8749-5.6097 2.3531-7.1213 3.1558-7.1213 3.1558s18.171-11.066 33.761-16.076c21.44-33.768 44.798-81.74 21.276-102.72" fill="#003B57"/>
</svg>